<?xml version="1.0" encoding="UTF-8"?>
<svg version="1.1" xmlns="http://www.w3.org/2000/svg" width="512" height="512">
<path d="M0 0 C16.93711607 13.41489168 28.35103373 30.63240191 31.04296875 52.41015625 C31.77398233 65.53504098 31.2276067 77.8562424 27.04296875 90.41015625 C34.96296875 89.91515625 34.96296875 89.91515625 43.04296875 89.41015625 C42.56859375 87.76015625 42.09421875 86.11015625 41.60546875 84.41015625 C36.0594766 63.79580806 38.64866842 42.04005442 49.04296875 23.41015625 C51.69090402 19.1242856 54.76577208 15.23164258 58.04296875 11.41015625 C58.96335937 10.32154297 58.96335937 10.32154297 59.90234375 9.2109375 C72.57438587 -4.57126215 91.93434797 -12.91385551 110.44140625 -13.875 C130.66139906 -14.4790971 149.80045166 -8.74734729 165.16796875 4.72265625 C166.80874813 6.26857807 168.43442788 7.83071727 170.04296875 9.41015625 C170.74421875 10.08691406 171.44546875 10.76367188 172.16796875 11.4609375 C186.75613151 26.59045786 191.49091646 46.96714671 191.2734375 67.40625 C191.03629359 75.25918743 189.52758364 82.95631157 187.04296875 90.41015625 C187.74961166 90.40349442 188.45625458 90.39683258 189.18431091 90.38996887 C195.87730972 90.32960077 202.5702314 90.2840522 209.26344204 90.25471973 C212.70366059 90.23913209 216.14365223 90.21802217 219.58374023 90.18383789 C223.54798572 90.14469618 227.51214262 90.13038996 231.4765625 90.1171875 C232.69879013 90.10170364 233.92101776 90.08621979 235.18028259 90.07026672 C244.54187306 90.06843887 252.23393136 91.0313627 259.35546875 97.53515625 C260.15597656 98.23898438 260.95648438 98.9428125 261.78125 99.66796875 C267.55528213 106.66860875 268.63004275 113.6341634 268.55090332 122.49230957 C268.56026326 124.11753123 268.56026326 124.11753123 268.5698123 125.77558565 C268.58570683 129.38902637 268.57315127 133.00178922 268.56054688 136.61523438 C268.56596953 139.21276746 268.57309299 141.81029746 268.58178711 144.40782166 C268.59953333 150.72031376 268.59574986 157.03261515 268.58413655 163.34511459 C268.57508708 168.4773711 268.57388475 173.60957434 268.57823181 178.74183655 C268.57884474 179.47348936 268.57945768 180.20514217 268.58008918 180.95896628 C268.58136814 182.44550591 268.58266499 183.93204553 268.58397955 185.41858512 C268.59537392 199.34373735 268.58228962 213.26878408 268.56077808 227.193919 C268.54290811 239.13112251 268.54601254 251.0681704 268.56445312 263.00537109 C268.58588008 276.88216 268.59427539 290.75885655 268.58200407 304.63565969 C268.58072993 306.11659843 268.57947245 307.59753719 268.57823181 309.07847595 C268.57761471 309.80704387 268.57699761 310.5356118 268.57636181 311.28625754 C268.57291437 316.40977884 268.57872413 321.53324135 268.58815002 326.65675354 C268.60056807 333.55809306 268.59167222 340.45913434 268.568573 347.36044502 C268.5632889 349.89160742 268.56479451 352.42279456 268.57362366 354.95394707 C268.58457384 358.41229799 268.57082024 361.86971153 268.55090332 365.32800293 C268.56428765 366.8261229 268.56428765 366.8261229 268.57794237 368.35450792 C268.47295787 377.76969749 265.35068273 384.79168122 258.98046875 391.68359375 C253.49208024 396.57445609 247.19227214 398.53642123 239.94966125 398.53041077 C238.03766937 398.53247276 238.03766937 398.53247276 236.08705139 398.53457642 C234.67172218 398.53103726 233.2563932 398.52740245 231.84106445 398.52368164 C230.35295616 398.52339961 228.86484772 398.52355781 227.3767395 398.52412415 C223.33364552 398.52441152 219.29058109 398.51852449 215.24749398 398.51155019 C211.0234112 398.50530665 206.79932777 398.50471206 202.57524109 398.50352478 C194.57486744 398.50041442 186.57450742 398.492205 178.57413977 398.48217529 C169.46662746 398.471005 160.3591145 398.46550139 151.25159705 398.46047986 C132.51537831 398.45002215 113.77917827 398.43168032 95.04296875 398.41015625 C95.04296875 413.26015625 95.04296875 428.11015625 95.04296875 443.41015625 C106.05264217 443.25206442 106.05264217 443.25206442 117.06152344 443.04980469 C118.44595099 443.03811776 119.83039232 443.02792593 121.21484375 443.01953125 C121.92850098 442.99906738 122.6421582 442.97860352 123.37744141 442.95751953 C126.81423579 442.95511113 128.71759894 443.17589508 131.54003906 445.20800781 C133.04296875 447.41015625 133.04296875 447.41015625 132.91796875 451.03515625 C132.04296875 454.41015625 132.04296875 454.41015625 130.04296875 456.41015625 C127.54147649 456.60974519 125.15032436 456.68385452 122.6474762 456.67085266 C121.87609265 456.67467821 121.1047091 456.67850376 120.30995029 456.68244523 C117.71120395 456.69280854 115.11267719 456.68877683 112.51391602 456.68481445 C110.65644118 456.68915909 108.79896815 456.69434141 106.9414978 456.70030212 C101.88577083 456.71373015 96.83011844 456.71426658 91.77437711 456.71173882 C87.55943665 456.71067167 83.34451144 456.7155459 79.12957424 456.72034425 C69.18882898 456.73145261 59.24812151 456.73186939 49.30737305 456.72583008 C39.03949656 456.71978811 28.77175704 456.73210395 18.50390393 456.75340015 C9.6996344 456.77099184 0.89540856 456.77702135 -7.90887791 456.7737624 C-13.17227051 456.7719455 -18.43556543 456.77462615 -23.69894218 456.78847694 C-28.64750804 456.80101117 -33.59585976 456.79915314 -38.54442215 456.78606606 C-40.36374164 456.78369107 -42.183076 456.78646773 -44.00237846 456.79468918 C-46.48002253 456.80508084 -48.95693795 456.79711774 -51.43455505 456.78437805 C-52.15984152 456.79175234 -52.88512798 456.79912662 -53.63239282 456.80672437 C-56.49575468 456.77560554 -58.48523462 456.72697771 -60.89984226 455.10551739 C-62.71918727 452.18792474 -62.37199406 449.72985873 -61.95703125 446.41015625 C-59.51749329 443.71311151 -58.03223581 443.4173203 -54.38183594 443.06958008 C-52.96410409 443.07032521 -51.54631055 443.08670483 -50.12890625 443.1171875 C-49.13238037 443.12171936 -49.13238037 443.12171936 -48.11572266 443.12634277 C-45.64599968 443.14197928 -43.17649904 443.18386341 -40.70703125 443.22265625 C-35.17953125 443.28453125 -29.65203125 443.34640625 -23.95703125 443.41015625 C-23.95703125 428.56015625 -23.95703125 413.71015625 -23.95703125 398.41015625 C-32.56732422 398.46236328 -32.56732422 398.46236328 -41.3515625 398.515625 C-44.9837341 398.53094998 -48.61586596 398.54539156 -52.24804688 398.55664062 C-58.01579038 398.57458814 -63.78339129 398.59584114 -69.55102539 398.63647461 C-74.19997917 398.66902266 -78.84878007 398.68699965 -83.49783897 398.69478798 C-85.27330622 398.70033969 -87.04876492 398.7111806 -88.82416725 398.72734642 C-91.30719847 398.74906042 -93.7895945 398.75212575 -96.27270508 398.75073242 C-97.37861496 398.76691116 -97.37861496 398.76691116 -98.50686646 398.78341675 C-101.43773269 398.76556993 -103.46638213 398.74062674 -105.93730164 397.07637024 C-106.95703125 395.41015625 -106.95703125 395.41015625 -106.95703125 392.41015625 C-115.86703125 392.41015625 -124.77703125 392.41015625 -133.95703125 392.41015625 C-134.28703125 394.06015625 -134.61703125 395.71015625 -134.95703125 397.41015625 C-138.20932006 399.03630065 -141.79148072 398.61600925 -145.3671875 398.6484375 C-146.20865829 398.65650925 -147.05012909 398.66458099 -147.917099 398.67289734 C-149.70341937 398.6867451 -151.48976628 398.69746416 -153.27612305 398.70532227 C-155.9847388 398.72243642 -158.69210208 398.76630268 -161.40039062 398.81054688 C-163.13931397 398.82068283 -164.87824768 398.8291961 -166.6171875 398.8359375 C-167.41753922 398.85344559 -168.21789093 398.87095367 -169.04249573 398.88899231 C-177.93363742 398.85537139 -184.79620813 395.25018329 -191.23046875 389.27734375 C-195.9515115 384.17178168 -198.07573069 378.72428024 -198.09125233 371.8201189 C-198.09571017 370.89808857 -198.10016801 369.97605823 -198.10476094 369.02608758 C-198.10457658 368.01666768 -198.10439222 367.00724777 -198.10420227 365.96723938 C-198.10787896 364.89211395 -198.11155565 363.81698852 -198.11534375 362.70928353 C-198.12638698 359.09435154 -198.13022552 355.47944829 -198.1340332 351.86450195 C-198.14029733 349.27756153 -198.14694409 346.69062201 -198.15394592 344.10368347 C-198.17369446 336.33216368 -198.18377422 328.56064262 -198.19267371 320.78910401 C-198.19705901 317.12774987 -198.20242517 313.46639718 -198.20766258 309.80504417 C-198.22467279 297.63135357 -198.23916671 285.45766386 -198.24641132 273.2839632 C-198.24832116 270.12591361 -198.2502415 266.96786402 -198.25219727 263.80981445 C-198.25268101 263.02491495 -198.25316475 262.24001545 -198.25366315 261.43133112 C-198.26196255 248.7179629 -198.28729885 236.0046888 -198.31977794 223.29136167 C-198.35286384 210.2338964 -198.37086144 197.17647893 -198.37405556 184.11897153 C-198.37621918 176.78965141 -198.3849461 169.46046857 -198.41051674 162.13118935 C-198.4345187 155.23569804 -198.43803981 148.34045739 -198.42775536 141.44493294 C-198.42725934 138.91537403 -198.43359909 136.38580307 -198.4473114 133.85628128 C-198.46499849 130.39988831 -198.45793875 126.94438492 -198.44477844 123.48799133 C-198.45574769 122.48972503 -198.46671693 121.49145874 -198.47801858 120.46294194 C-198.39162101 111.04810551 -195.26817398 104.02172862 -188.890625 97.13671875 C-183.16319978 92.02253299 -176.70134216 90.31930881 -169.17871094 90.20483398 C-167.4373587 90.17491615 -167.4373587 90.17491615 -165.66082764 90.14439392 C-164.41279358 90.12768143 -163.16475952 90.11096893 -161.87890625 90.09375 C-160.59719543 90.0729689 -159.31548462 90.05218781 -157.99493408 90.03077698 C-154.59526853 89.97570878 -151.19554387 89.92623261 -147.79577637 89.87792969 C-144.32343311 89.82760293 -140.8511752 89.77197532 -137.37890625 89.71679688 C-130.57168864 89.60940203 -123.76439386 89.50791598 -116.95703125 89.41015625 C-117.16561768 88.59683838 -117.3742041 87.78352051 -117.58911133 86.94555664 C-117.86134521 85.87297607 -118.1335791 84.80039551 -118.4140625 83.6953125 C-118.68452393 82.63449463 -118.95498535 81.57367676 -119.23364258 80.48071289 C-123.79918037 61.10144564 -120.32407099 39.86064244 -110.33203125 22.72265625 C-98.54073491 4.76021416 -82.29696726 -7.21060364 -61.20703125 -12.46484375 C-40.03012642 -16.4533191 -17.72974336 -12.53026776 0 0 Z " fill="#010102" transform="translate(220.95703125,34.58984375)"/>
<path d="M0 0 C25.08 0 50.16 0 76 0 C76 3.96 76 7.92 76 12 C73.79703247 12.02187378 73.79703247 12.02187378 71.54956055 12.04418945 C66.10936934 12.10208813 60.66959571 12.17932165 55.22973633 12.26245117 C52.87368539 12.2957402 50.51755394 12.32375961 48.16137695 12.34643555 C44.77780793 12.37990803 41.39497946 12.43222092 38.01171875 12.48828125 C36.42722176 12.49786613 36.42722176 12.49786613 34.81071472 12.50764465 C33.33952934 12.53733589 33.33952934 12.53733589 31.83862305 12.56762695 C30.54289619 12.58428154 30.54289619 12.58428154 29.22099304 12.60127258 C26.98590064 12.87019273 26.98590064 12.87019273 25.22184753 14.04498291 C23.31646486 17.09369037 23.58322884 20.22745267 23.61181641 23.71264648 C23.60655945 24.49669861 23.60130249 25.28075073 23.59588623 26.08856201 C23.58267183 28.68294134 23.59143004 31.27670807 23.6015625 33.87109375 C23.59954197 35.67326475 23.59663071 37.47543495 23.59286499 39.27760315 C23.58843952 43.05632301 23.59487905 46.83483023 23.60888672 50.61352539 C23.62596652 55.45707119 23.61614655 60.30011786 23.59816933 65.14364529 C23.58732701 68.86598976 23.59078009 72.58821599 23.5985527 76.31056404 C23.60055411 78.09634523 23.59809752 79.88213715 23.59111404 81.66790581 C23.58349353 84.16487922 23.59511229 86.66104566 23.61181641 89.15795898 C23.60270737 90.26543236 23.60270737 90.26543236 23.59341431 91.39527893 C23.6311768 94.44284712 23.85544808 96.70943935 25.22184753 99.45600891 C27.53246946 101.46234961 28.79810476 101.51463347 31.83862305 101.54589844 C33.30980843 101.57547638 33.30980843 101.57547638 34.81071472 101.60565186 C35.86704605 101.60688049 36.92337738 101.60810913 38.01171875 101.609375 C39.63676079 101.63417938 39.63676079 101.63417938 41.29463196 101.65948486 C44.75897809 101.7081169 48.22288481 101.72937015 51.6875 101.75 C54.0345275 101.77814686 56.38153439 101.80807246 58.72851562 101.83984375 C64.4855969 101.91387979 70.24255382 101.96543307 76 102 C76.09796875 102.83144531 76.1959375 103.66289062 76.296875 104.51953125 C76.52117187 106.14955078 76.52117187 106.14955078 76.75 107.8125 C76.95882812 109.43091797 76.95882812 109.43091797 77.171875 111.08203125 C77.76013397 114.07179195 77.76013397 114.07179195 79.89575195 115.86108398 C82.83203169 117.45033389 84.70206626 117.43888852 88 117 C90.75856902 115.53774933 90.75856902 115.53774933 93.3125 113.4375 C94.17488281 112.77621094 95.03726563 112.11492187 95.92578125 111.43359375 C98.87214065 109.19185714 98.87214065 109.19185714 100.83789062 107.18701172 C107.64501408 100.93547434 113.93111257 101.08074317 122.875 101.25 C125.47650669 101.26781854 128.07813208 101.27362158 130.6796875 101.265625 C131.82163574 101.28399414 132.96358398 101.30236328 134.14013672 101.32128906 C136.91586211 101.21744919 136.91586211 101.21744919 138.65447998 99.96868896 C140.73922287 96.91841081 140.41702068 93.74716517 140.38818359 90.1796875 C140.39344055 89.38427551 140.39869751 88.58886353 140.40411377 87.76934814 C140.41732747 85.13769954 140.40857103 82.50665485 140.3984375 79.875 C140.40045785 78.04801314 140.40336895 76.22102706 140.40713501 74.39404297 C140.41156021 70.56404954 140.40512102 66.73426593 140.39111328 62.90429688 C140.37402125 57.99115295 140.38386139 53.07850064 140.40183067 48.16537476 C140.41266323 44.39245896 140.40922461 40.61966001 140.4014473 36.84674072 C140.39944382 35.03501325 140.40190971 33.22327521 140.40888596 31.41156006 C140.41649181 28.8808577 140.40490887 26.35095517 140.38818359 23.8203125 C140.39729263 22.6934201 140.39729263 22.6934201 140.40658569 21.54376221 C140.37126611 18.66395455 140.32326541 16.51902114 138.77815247 14.03825378 C136.45678579 12.68282011 134.84809986 12.60216067 132.16137695 12.56762695 C131.1805867 12.54783279 130.19979645 12.52803864 129.18928528 12.50764465 C128.13295395 12.50125473 127.07662262 12.49486481 125.98828125 12.48828125 C124.90491989 12.47033005 123.82155853 12.45237885 122.70536804 12.43388367 C119.24111843 12.37965015 115.77700762 12.34584256 112.3125 12.3125 C109.96547542 12.27933851 107.61846919 12.24484996 105.27148438 12.20898438 C99.51442287 12.1239159 93.75740346 12.0571666 88 12 C88 8.04 88 4.08 88 0 C113.08 0 138.16 0 164 0 C164.33 4.95 164.66 9.9 165 15 C167.37065266 30.09449462 173.67670713 44.62610653 184 56 C184.60328125 56.68320312 185.2065625 57.36640625 185.828125 58.0703125 C190.8966447 63.48909576 196.59171093 67.31229628 203 71 C203.77988281 71.4640625 204.55976563 71.928125 205.36328125 72.40625 C220.9107688 80.97696583 240.85221702 82.93181033 257.98461914 78.50805664 C275.7695406 73.24784205 292.11835018 63.05768096 302 47 C302.33 47 302.66 47 303 47 C303 72.74 303 98.48 303 125 C287.16 125.495 287.16 125.495 271 126 C271 128.64 271 131.28 271 134 C274.58422296 136.38948197 276.37232596 136.30233168 280.63671875 136.4140625 C282.58481445 136.47207031 282.58481445 136.47207031 284.57226562 136.53125 C285.94400573 136.56270517 287.31575061 136.59395251 288.6875 136.625 C290.07098785 136.66319197 291.45445223 136.70224442 292.83789062 136.7421875 C296.2251245 136.83660517 299.61235069 136.92218118 303 137 C303.07443657 141.87464091 303.12873667 146.74894728 303.16479492 151.62402344 C303.17983465 153.28065763 303.20027177 154.93725231 303.22631836 156.59375 C303.26291515 158.9818703 303.27977439 161.36946188 303.29296875 163.7578125 C303.30845261 164.49242706 303.32393646 165.22704163 303.33988953 165.98391724 C303.34164719 171.415874 302.23695242 175.54233494 298.53515625 179.609375 C293.49771041 183.51105719 290.51284646 185.25038399 284.09696102 185.24774647 C282.88210866 185.25212847 281.6672563 185.25651046 280.41559023 185.26102525 C279.06562862 185.25579373 277.71566768 185.25038813 276.3657074 185.24482727 C274.93308641 185.24624937 273.50046607 185.2485618 272.06784779 185.25168961 C268.12629501 185.2577996 264.18484272 185.25153985 260.24329722 185.243379 C255.99445943 185.23679853 251.74563459 185.24179666 247.49679565 185.24560547 C240.13311823 185.25083141 232.76946711 185.24933132 225.40579033 185.24382973 C213.77311419 185.23562514 202.14049498 185.24683537 190.50782776 185.2610321 C186.52977289 185.26563325 182.55171787 185.27008357 178.57366276 185.27447033 C177.57951969 185.27556847 176.58537662 185.27666661 175.561108 185.27779803 C164.24362175 185.28997351 152.92613367 185.29752493 141.60864258 185.3034668 C140.57394819 185.30401486 139.5392538 185.30456292 138.47320504 185.30512758 C121.69161131 185.31359367 104.9100336 185.31024539 88.12843978 185.30431245 C70.91026446 185.29870207 53.69217014 185.31219321 36.47401959 185.34186524 C25.84667402 185.35943989 15.21956207 185.36100061 4.59221745 185.34222009 C-2.68473671 185.33064615 -9.96153268 185.33700954 -17.23846621 185.3576893 C-21.44143494 185.3690497 -25.64399662 185.37209577 -29.84694862 185.35351372 C-33.6905395 185.33667694 -37.53338188 185.34259117 -41.37692582 185.36701228 C-42.77119532 185.37176329 -44.16552409 185.36796074 -45.55974133 185.35498682 C-47.44736886 185.33862819 -49.33519942 185.35572516 -51.22280216 185.37473011 C-52.79899644 185.37481263 -52.79899644 185.37481263 -54.40703303 185.37489682 C-57.23971688 185.74940809 -57.23971688 185.74940809 -58.68785709 188.49864358 C-59.12086425 189.3240912 -59.55387141 190.14953882 -60 191 C-62.77148438 191.64697266 -62.77148438 191.64697266 -66.09375 191.6640625 C-67.28871094 191.67050781 -68.48367187 191.67695313 -69.71484375 191.68359375 C-70.96394531 191.66425781 -72.21304688 191.64492188 -73.5 191.625 C-74.74910156 191.64433594 -75.99820313 191.66367187 -77.28515625 191.68359375 C-78.48011719 191.67714844 -79.67507812 191.67070312 -80.90625 191.6640625 C-82.00259766 191.65842285 -83.09894531 191.6527832 -84.22851562 191.64697266 C-85.14310547 191.43347168 -86.05769531 191.2199707 -87 191 C-87.45656982 190.17371094 -87.91313965 189.34742188 -88.38354492 188.49609375 C-88.9169751 187.67238281 -89.45040527 186.84867188 -90 186 C-92.84438424 185.50979803 -95.11295867 185.3480481 -97.95703125 185.3984375 C-98.73761398 185.39043121 -99.51819672 185.38242493 -100.32243347 185.37417603 C-102.81964834 185.35108094 -105.31524094 185.36056915 -107.8125 185.375 C-110.2987453 185.37885576 -112.78426656 185.37531973 -115.27043152 185.35440063 C-116.81637814 185.34237796 -118.36252777 185.34487102 -119.90840149 185.36410522 C-125.55921757 185.33503489 -129.64197858 184.13062313 -133.86328125 180.31640625 C-134.34152344 179.73761719 -134.81976563 179.15882813 -135.3125 178.5625 C-135.80363281 177.98628906 -136.29476562 177.41007813 -136.80078125 176.81640625 C-139.5548064 172.64500008 -139.1321656 168.00641569 -139.09765625 163.171875 C-139.0962413 162.42286926 -139.09482635 161.67386353 -139.09336853 160.90216064 C-139.08778659 158.51806588 -139.07523745 156.13406622 -139.0625 153.75 C-139.05748266 152.13020969 -139.05292016 150.51041791 -139.04882812 148.890625 C-139.03782308 144.92704688 -139.02057091 140.96353955 -139 137 C-138.39136018 136.99864347 -137.78272036 136.99728694 -137.15563691 136.99588931 C-101.11493657 136.91530974 -65.07427621 136.82438428 -29.03363682 136.71994839 C-24.71008752 136.70742891 -20.38653798 136.69499623 -16.06298828 136.68261719 C-15.20221585 136.68015119 -14.34144341 136.6776852 -13.45458697 136.67514448 C0.49881537 136.63537709 14.45222585 136.60264741 28.40565191 136.57250018 C42.71390312 136.54143038 57.02211966 136.5028403 71.33033192 136.45720994 C80.16543699 136.4292727 89.00051657 136.40726247 97.83565404 136.39273749 C103.88709714 136.38222805 109.93849103 136.36444063 115.98989712 136.34083296 C119.48576891 136.32741288 122.98157145 136.31729459 126.4774704 136.31578636 C130.26037675 136.31248815 134.04303989 136.29707738 137.82589722 136.2784729 C138.94066464 136.28040763 140.05543207 136.28234237 141.20398033 136.28433573 C142.21118035 136.27687024 143.21838037 136.26940475 144.25610161 136.26171303 C145.13021781 136.25943471 146.00433401 136.25715638 146.90493858 136.25480902 C149.21923135 136.19181027 149.21923135 136.19181027 151 134 C151.25003964 130.45821402 151.25003964 130.45821402 151 127 C149.379799 125.379799 147.60373759 125.86812036 145.36353207 125.8613348 C144.3548397 125.85586036 143.34614733 125.85038591 142.30688852 125.84474558 C141.1853173 125.84376747 140.06374609 125.84278936 138.90818787 125.84178162 C137.13668628 125.83437465 137.13668628 125.83437465 135.32939678 125.82681805 C132.03659204 125.81406082 128.74383003 125.80580372 125.45101035 125.79939139 C121.90565176 125.79141005 118.36031492 125.77770453 114.81497192 125.76467896 C108.66753759 125.74288393 102.5201011 125.72475056 96.37264824 125.70907402 C87.48436247 125.68640287 78.59610074 125.65825628 69.70783532 125.62875474 C55.28871397 125.58104496 40.8695828 125.53778999 26.45043945 125.49731445 C12.44001501 125.45797673 -1.57040069 125.41655466 -15.58081055 125.37231445 C-16.44378955 125.36959018 -17.30676854 125.36686591 -18.19589842 125.36405908 C-22.52502449 125.35037989 -26.85415042 125.33665956 -31.1832763 125.32291877 C-67.1221671 125.20890082 -103.06107536 125.10291997 -139 125 C-139 99.26 -139 73.52 -139 47 C-136.79518266 49.20481734 -134.7707485 51.3893125 -132.75 53.75 C-131.50222766 55.16862914 -130.25225122 56.58532289 -129 58 C-128.48695313 58.59296875 -127.97390625 59.1859375 -127.4453125 59.796875 C-116.44820736 71.72408356 -99.39849873 78.97076004 -83.33032227 80.20507812 C-80.59163432 80.30224218 -77.86532556 80.32908909 -75.125 80.3125 C-74.15900879 80.30758545 -73.19301758 80.3026709 -72.19775391 80.29760742 C-65.09515213 80.18104394 -58.71091435 79.4484429 -52 77 C-51.03449219 76.67128906 -50.06898437 76.34257812 -49.07421875 76.00390625 C-30.04519283 68.87110665 -15.65663453 54.63299163 -7.2421875 36.2578125 C-2.03705879 24.28126083 -1.00982425 13.1277152 0 0 Z " fill="#3A569D" transform="translate(174,236)"/>
<path d="M0 0 C2.93261719 -0.56762695 2.93261719 -0.56762695 6.296875 -0.48828125 C7.50214844 -0.47216797 8.70742188 -0.45605469 9.94921875 -0.43945312 C11.20347656 -0.39755859 12.45773437 -0.35566406 13.75 -0.3125 C15.65458984 -0.27866211 15.65458984 -0.27866211 17.59765625 -0.24414062 C20.73295773 -0.18520639 23.86588595 -0.10297079 27 0 C27.433125 0.9590625 27.433125 0.9590625 27.875 1.9375 C28.82823451 4.15206079 28.82823451 4.15206079 31 5 C32.70973245 5.10576162 34.42351879 5.14876668 36.13647461 5.16113281 C37.20776108 5.17074036 38.27904755 5.1803479 39.38279724 5.19024658 C40.54424759 5.19449646 41.70569794 5.19874634 42.90234375 5.203125 C44.09098526 5.20882507 45.27962677 5.21452515 46.50428772 5.22039795 C49.02197374 5.22985676 51.5396722 5.23638542 54.05737305 5.24023438 C57.91802416 5.24995098 61.77814556 5.28097142 65.63867188 5.3125 C68.08072599 5.31902867 70.52278393 5.32427968 72.96484375 5.328125 C74.12426987 5.3404718 75.28369598 5.3528186 76.47825623 5.36553955 C77.55269485 5.36253845 78.62713348 5.35953735 79.73413086 5.35644531 C80.68074081 5.36009094 81.62735077 5.36373657 82.60264587 5.36749268 C85.43781226 4.93288735 86.27511876 4.24140028 88 2 C88.33 1.34 88.66 0.68 89 0 C98.24 0 107.48 0 117 0 C117.66 1.32 118.32 2.64 119 4 C121.84535725 5.42267862 124.36218552 5.21971869 127.5390625 5.31640625 C128.84101563 5.35830078 130.14296875 5.40019531 131.484375 5.44335938 C132.86458045 5.48317299 134.24478883 5.52288522 135.625 5.5625 C137.01303415 5.60569407 138.40105528 5.64930865 139.7890625 5.69335938 C143.19260256 5.79972 146.59621778 5.90174714 150 6 C150.07443657 10.87464091 150.12873667 15.74894728 150.16479492 20.62402344 C150.17983465 22.28065763 150.20027177 23.93725231 150.22631836 25.59375 C150.26291515 27.9818703 150.27977439 30.36946188 150.29296875 32.7578125 C150.31619453 33.85973434 150.31619453 33.85973434 150.33988953 34.98391724 C150.34164719 40.415874 149.23695242 44.54233494 145.53515625 48.609375 C140.49771041 52.51105719 137.51284646 54.25038399 131.09696102 54.24774647 C129.88210866 54.25212847 128.6672563 54.25651046 127.41559023 54.26102525 C126.06562862 54.25579373 124.71566768 54.25038813 123.3657074 54.24482727 C121.93308641 54.24624937 120.50046607 54.2485618 119.06784779 54.25168961 C115.12629501 54.2577996 111.18484272 54.25153985 107.24329722 54.243379 C102.99445943 54.23679853 98.74563459 54.24179666 94.49679565 54.24560547 C87.13311823 54.25083141 79.76946711 54.24933132 72.40579033 54.24382973 C60.77311419 54.23562514 49.14049498 54.24683537 37.50782776 54.2610321 C33.52977289 54.26563325 29.55171787 54.27008357 25.57366276 54.27447033 C24.08244815 54.27611754 24.08244815 54.27611754 22.561108 54.27779803 C11.24362175 54.28997351 -0.07386633 54.29752493 -11.39135742 54.3034668 C-12.42605181 54.30401486 -13.4607462 54.30456292 -14.52679496 54.30512758 C-31.30838869 54.31359367 -48.0899664 54.31024539 -64.87156022 54.30431245 C-82.08973554 54.29870207 -99.30782986 54.31219321 -116.52598041 54.34186524 C-127.15332598 54.35943989 -137.78043793 54.36100061 -148.40778255 54.34222009 C-155.68473671 54.33064615 -162.96153268 54.33700954 -170.23846621 54.3576893 C-174.44143494 54.3690497 -178.64399662 54.37209577 -182.84694862 54.35351372 C-186.6905395 54.33667694 -190.53338188 54.34259117 -194.37692582 54.36701228 C-195.77119532 54.37176329 -197.16552409 54.36796074 -198.55974133 54.35498682 C-200.44736886 54.33862819 -202.33519942 54.35572516 -204.22280216 54.37473011 C-205.79899644 54.37481263 -205.79899644 54.37481263 -207.40703303 54.37489682 C-210.23971688 54.74940809 -210.23971688 54.74940809 -211.68785709 57.49864358 C-212.12086425 58.3240912 -212.55387141 59.14953882 -213 60 C-215.77148438 60.64697266 -215.77148438 60.64697266 -219.09375 60.6640625 C-220.28871094 60.67050781 -221.48367187 60.67695313 -222.71484375 60.68359375 C-224.58849609 60.65458984 -224.58849609 60.65458984 -226.5 60.625 C-228.37365234 60.65400391 -228.37365234 60.65400391 -230.28515625 60.68359375 C-231.48011719 60.67714844 -232.67507812 60.67070312 -233.90625 60.6640625 C-235.00259766 60.65842285 -236.09894531 60.6527832 -237.22851562 60.64697266 C-238.14310547 60.43347168 -239.05769531 60.2199707 -240 60 C-240.45656982 59.17371094 -240.91313965 58.34742188 -241.38354492 57.49609375 C-241.9169751 56.67238281 -242.45040527 55.84867187 -243 55 C-245.84438424 54.50979803 -248.11295867 54.3480481 -250.95703125 54.3984375 C-251.73761398 54.39043121 -252.51819672 54.38242493 -253.32243347 54.37417603 C-255.81964834 54.35108094 -258.31524094 54.36056915 -260.8125 54.375 C-263.2987453 54.37885576 -265.78426656 54.37531973 -268.27043152 54.35440063 C-269.81637814 54.34237796 -271.36252777 54.34487102 -272.90840149 54.36410522 C-278.55921757 54.33503489 -282.64197858 53.13062313 -286.86328125 49.31640625 C-287.34152344 48.73761719 -287.81976563 48.15882813 -288.3125 47.5625 C-288.80363281 46.98628906 -289.29476562 46.41007812 -289.80078125 45.81640625 C-292.5548064 41.64500008 -292.1321656 37.00641569 -292.09765625 32.171875 C-292.0962413 31.42286926 -292.09482635 30.67386353 -292.09336853 29.90216064 C-292.08778659 27.51806588 -292.07523745 25.13406622 -292.0625 22.75 C-292.05748266 21.13020969 -292.05292016 19.51041791 -292.04882812 17.890625 C-292.03782308 13.92704688 -292.02057091 9.96353955 -292 6 C-291.39211962 5.99978263 -290.78423924 5.99956526 -290.15793824 5.99934131 C-254.1504845 5.98583298 -218.14315048 5.94638885 -182.13576747 5.87314438 C-177.81479587 5.86437736 -173.49382386 5.8558276 -169.17285156 5.84741211 C-167.88247984 5.84489352 -167.88247984 5.84489352 -166.56604001 5.84232404 C-152.62690517 5.81563556 -138.68781145 5.80655764 -124.74865368 5.80395857 C-110.45165984 5.80090189 -96.15478512 5.7789883 -81.85784507 5.73947543 C-73.03188637 5.71568005 -64.20616529 5.70669075 -55.3801789 5.71648689 C-49.33239641 5.72179214 -43.28482735 5.70882349 -37.23710564 5.6813371 C-33.74489622 5.66600956 -30.25316424 5.65888091 -26.76094055 5.67340279 C-22.97834226 5.68494048 -19.19710377 5.66603238 -15.41461182 5.63923645 C-14.30567007 5.64990971 -13.19672833 5.66058297 -12.05418229 5.67157966 C-6.12534676 5.76427074 -6.12534676 5.76427074 -1.46987534 2.49552441 C-0.98481647 1.67200135 -0.49975761 0.8484783 0 0 Z " fill="#A6B5EC" transform="translate(327,367)"/>
<path d="M0 0 C0.74016357 0.00491455 1.48032715 0.0098291 2.24291992 0.01489258 C8.73116264 0.15198298 14.59490608 1.20972241 20.75 3.3125 C21.73355469 3.64121094 22.71710938 3.96992187 23.73046875 4.30859375 C40.19381071 10.46371125 52.09474624 22.72997838 59.75 38.3125 C65.49533521 52.83252897 67.27904622 68.44204102 61.75 83.3125 C61.4096875 84.28574219 61.069375 85.25898437 60.71875 86.26171875 C54.09498714 103.73860655 41.74762886 115.13772427 25.1875 123.125 C10.56274924 129.39569708 -7.26944005 129.27535677 -22.12353516 123.59619141 C-39.12148026 116.34569322 -51.2123197 104.48957381 -58.25 87.3125 C-64.33115183 71.94859303 -64.61734781 54.48597144 -58.12744141 39.18408203 C-50.00055273 21.84943301 -36.85413191 10.56146594 -19.26953125 3.35546875 C-12.79764027 1.12002905 -6.85630549 -0.05468559 0 0 Z " fill="#F675C5" transform="translate(175.25,34.6875)"/>
<path d="M0 0 C12.39044427 9.77143013 20.93904671 22.89076732 24.3125 38.375 C24.7089975 42.36539153 24.73347224 46.30525283 24.6875 50.3125 C24.69910156 51.31990234 24.71070313 52.32730469 24.72265625 53.36523438 C24.65498602 70.9031017 17.02877901 84.82144645 5.36328125 97.4921875 C-6.31638999 108.92714182 -22.6007329 114.56209379 -38.6875 114.75 C-56.299695 114.56217063 -72.11516921 107.81151858 -84.6875 95.375 C-98.72788812 79.53513176 -103.02500897 62.49163438 -101.93017578 41.82714844 C-100.45492521 26.92029058 -91.88506857 14.77181059 -81.6875 4.375 C-81.15769531 3.82070313 -80.62789063 3.26640625 -80.08203125 2.6953125 C-58.46738089 -17.86360943 -23.22526541 -17.45100951 0 0 Z " fill="#6086C9" transform="translate(374.6875,47.625)"/>
<path d="M0 0 C0.92876953 -0.00322266 1.85753906 -0.00644531 2.81445312 -0.00976562 C16.93799639 0.09925822 29.69619567 4.73307101 40.9375 13.3125 C41.67613281 13.86292969 42.41476562 14.41335937 43.17578125 14.98046875 C54.92992109 24.50152503 62.63978531 39.43422866 64.9375 54.3125 C66.15482948 71.81410581 62.77253908 87.99856506 51.765625 102.09375 C49.57368728 104.60314076 47.30955059 106.97350935 44.9375 109.3125 C43.98230469 110.28316406 43.98230469 110.28316406 43.0078125 111.2734375 C29.64822984 123.96781273 12.37575893 126.86655816 -5.29296875 126.58984375 C-20.92170718 125.96791217 -35.67647806 117.16192066 -46.25390625 106 C-58.54782921 91.44324872 -63.60922193 74.15553474 -62.0625 55.3125 C-59.5112622 37.26301112 -50.28469787 22.54350138 -35.98828125 11.3515625 C-24.90405892 3.62664387 -13.45199821 -0.23435537 0 0 Z " fill="#DF0458" transform="translate(412.0625,178.6875)"/>
<path d="M0 0 C3.62426167 2.75029121 6.83704047 5.73482634 10 9 C10.64582031 9.64839844 11.29164063 10.29679687 11.95703125 10.96484375 C20.04612645 19.58263798 23.98416459 29.72541533 27 41 C27.19207031 41.63679688 27.38414062 42.27359375 27.58203125 42.9296875 C30.56913367 57.72561537 26.29028472 73.73096761 18.7265625 86.51171875 C15.55916174 91.07650219 11.91954121 95.07373574 8 99 C7.36191406 99.6496875 6.72382813 100.299375 6.06640625 100.96875 C-7.21562173 113.56044388 -24.16349332 116.52326303 -41.71484375 116.27734375 C-57.37243532 115.71923488 -70.17163363 107.81034912 -81 97 C-81.72316406 96.2884375 -82.44632813 95.576875 -83.19140625 94.84375 C-94.62896312 82.86361453 -99.66176351 66.88487333 -99.40014648 50.54150391 C-98.79154048 34.68384212 -92.20809962 19.3386432 -81 8 C-57.51522873 -12.95852098 -27.10561907 -16.25708244 0 0 Z " fill="#48B0F4" transform="translate(134,189)"/>
<path d="M0 0 C1.43291258 0.011057 2.86586125 0.01809533 4.29881287 0.02131653 C7.29321046 0.03810791 10.28459288 0.08728791 13.27807617 0.1628418 C17.10363547 0.25907139 20.92699997 0.29888797 24.7536478 0.31751537 C28.41938345 0.33785687 32.08458086 0.38675775 35.75 0.4375 C36.78971545 0.44823579 36.78971545 0.44823579 37.85043526 0.45918846 C39.82446474 0.48469038 41.79815455 0.53328108 43.77172852 0.58276367 C45.45214989 0.61801399 45.45214989 0.61801399 47.16651917 0.65397644 C52.0586591 1.32044822 56.09318896 3.18496345 59.12109375 7.14453125 C61.90810852 10.88709394 62.4333679 12.42372803 62.42211914 16.99072266 C62.42204361 18.01162994 62.42196808 19.03253723 62.42189026 20.0843811 C62.41672897 21.18962128 62.41156769 22.29486145 62.40625 23.43359375 C62.40412758 25.12734634 62.40412758 25.12734634 62.40196228 26.85531616 C62.39635119 30.47258113 62.38379678 34.08978489 62.37109375 37.70703125 C62.36608018 40.15494702 62.36151703 42.60286377 62.35742188 45.05078125 C62.34637815 51.06121891 62.32962919 57.07162071 62.30859375 63.08203125 C59.29941866 60.10115176 56.48275013 57.11395044 53.80859375 53.83203125 C42.84019259 41.51304338 25.25808497 32.24427145 8.69775391 30.86450195 C-13.74590516 29.89347834 -33.09922263 34.17598343 -50.4921875 49.0390625 C-62.28346939 59.9925979 -67.91737057 72.06953847 -73.69140625 87.08203125 C-97.45140625 87.08203125 -121.21140625 87.08203125 -145.69140625 87.08203125 C-143.76144188 83.22210252 -141.4905732 80.10850506 -138.81640625 76.76953125 C-138.33171875 76.15851563 -137.84703125 75.5475 -137.34765625 74.91796875 C-135.79979369 72.96924948 -134.24640819 71.02505704 -132.69140625 69.08203125 C-132.1922168 68.4576416 -131.69302734 67.83325195 -131.17871094 67.18994141 C-129.18322605 64.69460776 -127.18710189 62.19979999 -125.1875 59.70776367 C-121.6989943 55.35675892 -118.2506067 50.97596965 -114.81640625 46.58203125 C-111.21779764 41.98065712 -107.55328458 37.46578503 -103.69140625 33.08203125 C-102.73363281 33.29859375 -101.77585937 33.51515625 -100.7890625 33.73828125 C-78.74015913 38.4554476 -57.55570705 36.66776483 -37.94140625 24.83203125 C-27.82870143 18.02959435 -27.82870143 18.02959435 -20.41267395 8.64761353 C-15.42386968 -0.43637594 -9.66008112 -0.30848975 0 0 Z " fill="#3A569D" transform="translate(414.69140625,136.91796875)"/>
<path d="M0 0 C1.29539703 -0.03220139 2.59079407 -0.06440277 3.92544556 -0.09757996 C9.08561418 -0.19948769 14.24617607 -0.27445935 19.40706825 -0.32803631 C23.32242778 -0.3689667 27.23527818 -0.42921291 31.14941406 -0.53710938 C34.93862378 -0.64120143 38.72559953 -0.69549106 42.51615524 -0.71549416 C43.9556257 -0.7313706 45.39501954 -0.76447703 46.83366776 -0.81564903 C58.08706042 -1.19662332 58.08706042 -1.19662332 62.46942139 2.4727478 C64.485451 4.98506018 66.17533114 7.52018678 67.84130859 10.2722168 C70.27880884 12.95989258 70.27880884 12.95989258 72.84130859 15.2722168 C73.41236328 15.81362305 73.98341797 16.3550293 74.57177734 16.9128418 C89.4098586 30.53662898 107.63978976 36.00570984 127.51318359 35.5065918 C133.053704 35.26823754 138.42451504 34.44087934 143.84130859 33.2722168 C145.50779772 32.93799699 147.17441212 32.60439904 148.84130859 32.2722168 C154.90720404 39.33540646 160.84517884 46.46899078 166.56420898 53.81640625 C170.1807009 58.45501984 173.8729342 63.02748311 177.59130859 67.5847168 C185.22352365 76.95920161 185.22352365 76.95920161 188.15380859 80.6472168 C188.68619141 81.31495117 189.21857422 81.98268555 189.76708984 82.6706543 C190.84130859 84.2722168 190.84130859 84.2722168 190.84130859 86.2722168 C167.08130859 86.2722168 143.32130859 86.2722168 118.84130859 86.2722168 C117.85130859 82.9722168 116.86130859 79.6722168 115.84130859 76.2722168 C107.68196578 57.76765643 94.55298572 42.95825521 75.55615234 35.29956055 C74.66025391 34.96053711 73.76435547 34.62151367 72.84130859 34.2722168 C71.97634766 33.88163086 71.11138672 33.49104492 70.22021484 33.08862305 C55.22755788 27.20954861 35.19696312 28.07726698 20.26708984 33.73706055 C19.13658203 34.24366211 18.00607422 34.75026367 16.84130859 35.2722168 C15.72111328 35.76850586 14.60091797 36.26479492 13.44677734 36.77612305 C2.15559754 42.33465166 -7.70800609 50.40256008 -14.98681641 60.69018555 C-15.56689453 61.47329102 -15.56689453 61.47329102 -16.15869141 62.2722168 C-16.48869141 62.2722168 -16.81869141 62.2722168 -17.15869141 62.2722168 C-17.23487234 55.2613828 -17.28734636 48.25065591 -17.32348633 41.23950195 C-17.33855541 38.85534679 -17.35901431 36.47121927 -17.38500977 34.0871582 C-17.42147477 30.65658743 -17.43843693 27.22638379 -17.45166016 23.7956543 C-17.46714401 22.73293304 -17.48262787 21.67021179 -17.49858093 20.57528687 C-17.50000894 14.26954403 -17.13408359 9.45959621 -12.62353516 4.62768555 C-7.97266958 1.07114128 -5.82790612 0.14235366 0 0 Z " fill="#3A559C" transform="translate(52.15869140625,137.727783203125)"/>
<path d="M0 0 C31.02 0 62.04 0 94 0 C94 21.78 94 43.56 94 66 C85.42 66.33 76.84 66.66 68 67 C62.09887598 71.1781681 58.4681336 73.84804769 54 79 C53.67 79 53.34 79 53 79 C52.95101562 78.30132812 52.90203125 77.60265625 52.8515625 76.8828125 C52.77679688 75.97273438 52.70203125 75.06265625 52.625 74.125 C52.52058594 72.76761719 52.52058594 72.76761719 52.4140625 71.3828125 C52.20431868 68.82058097 52.20431868 68.82058097 50 67 C47.77803673 66.66930575 47.77803673 66.66930575 45.18310547 66.68115234 C44.16821045 66.66109131 43.15331543 66.64103027 42.10766602 66.62036133 C40.50362915 66.60332153 40.50362915 66.60332153 38.8671875 66.5859375 C37.39584351 66.55947144 37.39584351 66.55947144 35.89477539 66.5324707 C32.22168537 66.46928324 28.54831753 66.4231799 24.875 66.375 C16.66625 66.25125 8.4575 66.1275 0 66 C0 44.22 0 22.44 0 0 Z " fill="#F9D73F" transform="translate(209,260)"/>
<path d="M0 0 C0.95174103 -0.01283524 1.90348206 -0.02567047 2.88406372 -0.03889465 C3.91216156 -0.04628159 4.9402594 -0.05366852 5.99951172 -0.0612793 C7.06152802 -0.06935104 8.12354431 -0.07742279 9.21774292 -0.08573914 C11.46887583 -0.09957743 13.7200297 -0.11030072 15.97119141 -0.11816406 C19.39510582 -0.13532715 22.8180421 -0.17921086 26.24169922 -0.22338867 C28.4317963 -0.23352031 30.62190158 -0.24203494 32.81201172 -0.2487793 C33.82796417 -0.26628738 34.84391663 -0.28379547 35.89065552 -0.30183411 C42.93666131 -0.28059733 49.5886751 0.70120372 54.92727661 5.69535828 C58.34160058 9.6793164 59.42787528 12.12700168 59.46533203 17.26586914 C59.47493958 18.32747253 59.48454712 19.38907593 59.4944458 20.48284912 C59.49869568 21.63488831 59.50294556 22.78692749 59.50732422 23.97387695 C59.51302429 25.15540344 59.51872437 26.33692993 59.52459717 27.55426025 C59.53405816 30.05935772 59.54058549 32.5644677 59.54443359 35.06958008 C59.55412396 38.89727628 59.58513163 42.72443222 59.61669922 46.55200195 C59.62323063 48.98429043 59.62848056 51.41658275 59.63232422 53.84887695 C59.64467102 54.99281921 59.65701782 56.13676147 59.66973877 57.31536865 C59.65162149 63.80026003 59.41117476 68.76347149 54.83935547 73.78637695 C50.23215111 77.35482171 47.17066394 79.41622266 41.29541016 79.4675293 C40.30047546 79.480289 39.30554077 79.49304871 38.28045654 79.50619507 C36.67572479 79.50953354 36.67572479 79.50953354 35.03857422 79.51293945 C33.37752655 79.52292465 33.37752655 79.52292465 31.68292236 79.53311157 C29.33941304 79.54323548 26.99587491 79.54792867 24.65234375 79.54760742 C21.08137935 79.55196876 17.51166277 79.58826028 13.94091797 79.6262207 C11.66097426 79.63209137 9.38102471 79.63605909 7.10107422 79.63793945 C5.50848785 79.659496 5.50848785 79.659496 3.88372803 79.68148804 C-3.37288804 79.6371705 -9.14707798 78.68051809 -14.53564453 73.3605957 C-14.89787109 72.78438477 -15.26009766 72.20817383 -15.63330078 71.61450195 C-16.01357422 71.03571289 -16.39384766 70.45692383 -16.78564453 69.8605957 C-18.55608387 66.58566285 -18.83613341 63.83803242 -18.88867188 60.18994141 C-18.9047348 59.17491043 -18.92079773 58.15987946 -18.93734741 57.11408997 C-18.98193303 52.46718081 -19.0228731 47.82041311 -19.04589844 43.17333984 C-19.06244014 40.72630288 -19.08970618 38.27931387 -19.12792969 35.83251953 C-19.18284953 32.29735337 -19.20459799 28.76331923 -19.21923828 25.2277832 C-19.24190765 24.14104813 -19.26457703 23.05431305 -19.28793335 21.93464661 C-19.26908271 15.11681129 -18.28562653 10.37808409 -13.69580078 5.17700195 C-9.18000228 1.65467912 -5.68873293 0.06693312 0 0 Z " fill="#272123" transform="translate(155.69580078125,58.822998046875)"/>
<path d="M0 0 C1.13515549 -0.01283524 2.27031097 -0.02567047 3.43986511 -0.03889465 C4.66796402 -0.04628159 5.89606293 -0.05366852 7.16137695 -0.0612793 C8.42552933 -0.06935104 9.6896817 -0.07742279 10.99214172 -0.08573914 C13.67123071 -0.0995816 16.35019661 -0.11059685 19.02929688 -0.11816406 C22.44441433 -0.12919788 25.85887469 -0.16356611 29.2737608 -0.20333576 C32.54873368 -0.23593466 35.82376658 -0.2402927 39.09887695 -0.2487793 C40.31685471 -0.26628738 41.53483246 -0.28379547 42.78971863 -0.30183411 C50.31233389 -0.28271202 56.31707475 0.20895308 62.01127625 5.65995789 C67.91150813 12.37257484 66.75314937 20.36527217 66.81225586 28.77197266 C66.82877276 30.49151178 66.85600649 32.21098347 66.89428711 33.93017578 C67.28534136 51.60412755 67.28534136 51.60412755 61.4621582 58.17700195 C57.17668555 62.08434467 53.43595559 62.2955544 47.7746582 62.23950195 C46.00541992 62.2259668 46.00541992 62.2259668 44.20043945 62.2121582 C43.29680664 62.20055664 42.39317383 62.18895508 41.4621582 62.17700195 C41.3796582 63.22887695 41.2971582 64.28075195 41.2121582 65.36450195 C40.40260731 69.47971901 39.34506734 71.20673193 36.4621582 74.17700195 C32.68244404 76.06685903 28.56988506 75.79405203 24.4621582 75.17700195 C21.22317136 73.5956714 18.53391472 71.46607382 15.7121582 69.23950195 C8.61319617 64.03061996 4.2034218 62.11999922 -4.67456055 62.2121582 C-8.7575098 62.16202649 -10.67445084 61.04039291 -13.5378418 58.17700195 C-17.86093441 52.64554272 -19.28644125 48.25548775 -19.16674805 41.29418945 C-19.16916 40.47628937 -19.17157196 39.65838928 -19.17405701 38.81570435 C-19.17308404 37.0996614 -19.15982294 35.38358488 -19.13476562 33.66772461 C-19.10033176 31.05123903 -19.11416465 28.4381149 -19.13354492 25.8215332 C-19.12664844 24.14573769 -19.11697784 22.46995081 -19.10424805 20.79418945 C-19.10920792 20.01904999 -19.11416779 19.24391052 -19.11927795 18.44528198 C-18.99072792 12.48293102 -17.16232185 8.87848387 -12.94018555 4.5324707 C-8.48856822 0.98304782 -5.609217 0.05524192 0 0 Z " fill="#242224" transform="translate(74.537841796875,203.822998046875)"/>
<path d="M0 0 C0.9553212 -0.00524185 1.9106424 -0.0104837 2.89491272 -0.0158844 C4.91129588 -0.02229548 6.92771648 -0.02097945 8.9440918 -0.01245117 C12.02135136 -0.00394441 15.09675194 -0.0327104 18.17382812 -0.06445312 C20.1367182 -0.06606542 22.09961154 -0.06548706 24.0625 -0.0625 C24.9782933 -0.07373398 25.89408661 -0.08496796 26.83763123 -0.09654236 C32.42937613 -0.03585211 35.66525259 0.69327708 40.09765625 4.43359375 C42.21467548 6.84261563 43.07476419 8.36491758 44.09765625 11.43359375 C44.95037109 10.8921875 44.95037109 10.8921875 45.8203125 10.33984375 C50.68956206 7.41341663 54.2545364 5.42228455 60.09765625 6.43359375 C62.85094646 8.2292178 64.62393086 9.48614297 66.09765625 12.43359375 C66.22099837 15.1465598 66.28605635 17.8328359 66.30078125 20.546875 C66.30648132 21.3534404 66.3121814 22.1600058 66.3180542 22.99101257 C66.3275082 24.69996833 66.33403977 26.40894235 66.33789062 28.11791992 C66.34757945 30.72542416 66.37859125 33.33213453 66.41015625 35.93945312 C66.4166881 37.60025574 66.42193786 39.26106399 66.42578125 40.921875 C66.43812805 41.6991243 66.45047485 42.4763736 66.4631958 43.2771759 C66.44448558 47.85286207 65.92714185 50.79178035 63.09765625 54.43359375 C59.85059995 56.78491038 57.02426605 56.95220259 53.09765625 56.43359375 C49.97065932 54.96477522 47.02939471 53.25778657 44.09765625 51.43359375 C43.70578125 52.34109375 43.31390625 53.24859375 42.91015625 54.18359375 C40.68967543 58.16514557 38.15905609 60.40289383 34.09765625 62.43359375 C32.71039255 62.54274112 31.31819165 62.59255162 29.92675781 62.6105957 C28.634664 62.62984856 28.634664 62.62984856 27.31646729 62.64949036 C26.38316589 62.65687729 25.4498645 62.66426422 24.48828125 62.671875 C23.52871521 62.67994675 22.56914917 62.68801849 21.58050537 62.69633484 C19.54620168 62.71018116 17.5118747 62.72090085 15.47753906 62.72875977 C12.37389729 62.74594842 9.27132734 62.78982689 6.16796875 62.83398438 C4.19141408 62.84411341 2.21485036 62.85262885 0.23828125 62.859375 C-1.14952545 62.88563713 -1.14952545 62.88563713 -2.56536865 62.91242981 C-8.16460972 62.89368739 -11.55821987 62.32212452 -15.90234375 58.43359375 C-19.76749199 53.97608562 -19.35388959 49.14391073 -19.3359375 43.53125 C-19.34117935 42.5759288 -19.3464212 41.6206076 -19.3518219 40.63633728 C-19.35823298 38.61995412 -19.35691695 36.60353352 -19.34838867 34.5871582 C-19.33988191 31.50989864 -19.3686479 28.43449806 -19.40039062 25.35742188 C-19.40200292 23.3945318 -19.40142456 21.43163846 -19.3984375 19.46875 C-19.40967148 18.5529567 -19.42090546 17.63716339 -19.43247986 16.69361877 C-19.3721288 11.13312589 -18.75013235 7.751599 -14.90234375 3.43359375 C-10.44483562 -0.43155449 -5.61266073 -0.01795209 0 0 Z " fill="#261E21" transform="translate(389.90234375,210.56640625)"/>
<path d="M0 0 C4.14327184 2.25631664 6.69711307 5.08172615 8.8125 9.3125 C9.41218515 16.86853289 7.65157726 22.35962733 4.8125 29.3125 C5.46210693 29.29155273 6.11171387 29.27060547 6.78100586 29.24902344 C9.77050833 29.16504417 12.75976158 29.113584 15.75 29.0625 C17.28237305 29.01222656 17.28237305 29.01222656 18.84570312 28.9609375 C25.62859654 28.87425516 30.9833038 29.68182562 36.8125 33.3125 C43.6167741 40.29124266 43.14866347 46.79686207 43.125 56.125 C43.14111328 57.38376953 43.15722656 58.64253906 43.17382812 59.93945312 C43.17816798 68.17215182 42.87729298 73.68313989 37.4375 80.125 C33.41286241 83.47886466 29.88410782 84.55119004 24.69018555 84.65063477 C23.1978968 84.68429893 23.1978968 84.68429893 21.67546082 84.71864319 C20.07847099 84.7360984 20.07847099 84.7360984 18.44921875 84.75390625 C16.7902935 84.77456398 16.7902935 84.77456398 15.09785461 84.79563904 C12.76035544 84.81888457 10.42279037 84.83616343 8.08520508 84.84790039 C4.52236265 84.87483097 0.96248624 84.94976907 -2.59960938 85.02539062 C-4.8749801 85.0420486 -7.1503742 85.05581479 -9.42578125 85.06640625 C-10.48436844 85.09626114 -11.54295563 85.12611603 -12.63362122 85.15687561 C-19.37672677 85.1170832 -22.89517766 83.83861838 -27.75334167 79.11021423 C-30.90267348 75.1625339 -30.38214748 70.59569723 -30.42578125 65.796875 C-30.433853 64.94885315 -30.44192474 64.1008313 -30.45024109 63.22711182 C-30.46408086 61.42486611 -30.4748035 59.6225942 -30.48266602 57.8203125 C-30.49408747 56.00317538 -30.51437944 54.18606911 -30.54418945 52.36914062 C-30.82226472 35.40499574 -29.10233614 14.56401022 -17.1875 1.3125 C-11.37250843 -2.43493901 -6.27640717 -2.86455689 0 0 Z " fill="#262224" transform="translate(330.1875,57.6875)"/>
<path d="M0 0 C31.02 0 62.04 0 94 0 C94 15.18 94 30.36 94 46 C62.98 46 31.96 46 0 46 C0 30.82 0 15.64 0 0 Z " fill="#6086C9" transform="translate(209,433)"/>
<path d="M0 0 C2.17482502 0.05365723 4.32898926 0.00057873 6.50317383 -0.06347656 C11.90142579 -0.08969487 16.51013273 -0.10882116 20.87133789 3.45336914 C22.88288812 5.97950743 24.57740537 8.53872784 26.23950195 11.30371094 C31.89307606 17.66628375 38.11062425 22.67514942 45.23950195 27.30371094 C44.64042364 30.55700169 43.59770839 32.4103553 41.46606445 34.92089844 C40.89412354 35.6030542 40.32218262 36.28520996 39.73291016 36.98803711 C39.11633545 37.71095947 38.49976074 38.43388184 37.86450195 39.17871094 C36.57808548 40.71281131 35.29294446 42.24798205 34.0090332 43.78417969 C33.04924561 44.92959229 33.04924561 44.92959229 32.07006836 46.09814453 C29.50747998 49.18569099 27.0197245 52.32762693 24.55200195 55.49121094 C24.11500977 56.05050293 23.67801758 56.60979492 23.2277832 57.18603516 C22.34872601 58.31248974 21.47030608 59.43944192 20.5925293 60.56689453 C18.18986945 63.65107392 15.77735143 66.72750145 13.36450195 69.80371094 C12.92404541 70.36727295 12.48358887 70.93083496 12.02978516 71.51147461 C9.16490571 75.16606383 6.22706578 78.74861706 3.23950195 82.30371094 C0.22764176 80.98160803 -1.56589936 79.66981591 -3.6081543 77.10058594 C-4.12506836 76.45734375 -4.64198242 75.81410156 -5.17456055 75.15136719 C-5.71854492 74.45914063 -6.2625293 73.76691406 -6.82299805 73.05371094 C-7.39663086 72.33570313 -7.97026367 71.61769531 -8.5612793 70.87792969 C-10.30293188 68.69315753 -12.03362479 66.50017696 -13.76049805 64.30371094 C-14.24502441 63.68818359 -14.72955078 63.07265625 -15.22875977 62.43847656 C-17.01538495 60.16655589 -18.80003872 57.89313638 -20.5793457 55.61547852 C-25.27716498 49.61194937 -30.09394571 43.70625712 -34.9128418 37.79980469 C-35.39994629 37.20022949 -35.88705078 36.6006543 -36.38891602 35.98291016 C-37.62725998 34.46683152 -38.88235986 32.96447689 -40.1394043 31.46386719 C-41.76049805 29.30371094 -41.76049805 29.30371094 -41.76049805 27.30371094 C-39.9597168 26.14746094 -39.9597168 26.14746094 -37.44799805 24.80371094 C-30.70783383 20.87035732 -23.16391576 15.848259 -19.43164062 8.79101562 C-14.74183731 0.27294098 -9.13357942 -0.26830083 0 0 Z " fill="#3A569D" transform="translate(253.760498046875,136.6962890625)"/>
<path d="M0 0 C1.63684753 -0.01418472 1.63684753 -0.01418472 3.3067627 -0.02865601 C5.07400696 -0.01954697 5.07400696 -0.01954697 6.87695312 -0.01025391 C8.69108704 -0.01455917 8.69108704 -0.01455917 10.54187012 -0.01895142 C13.10067208 -0.02099426 15.65948957 -0.01544908 18.21826172 -0.00292969 C22.14260667 0.01311981 26.06592159 -0.00277203 29.99023438 -0.02197266 C32.47330957 -0.01999026 34.95638413 -0.01614668 37.43945312 -0.01025391 C38.61761597 -0.0163266 39.79577881 -0.02239929 41.00964355 -0.02865601 C42.10087524 -0.01919952 43.19210693 -0.00974304 44.31640625 0 C45.27776489 0.00238678 46.23912354 0.00477356 47.22961426 0.00723267 C49.65820312 0.38818359 49.65820312 0.38818359 51.46879578 1.70381165 C53.42698404 4.47688799 53.06449577 7.5600891 53.02148438 10.82958984 C53.02223213 11.91481178 53.02223213 11.91481178 53.022995 13.0219574 C53.02065702 14.54925284 53.01094465 16.07655231 52.99438477 17.60375977 C52.9707538 19.94566133 52.97383004 22.28642719 52.98046875 24.62841797 C52.97489311 26.11214873 52.96778395 27.5958747 52.95898438 29.07958984 C52.96035149 30.13274132 52.96035149 30.13274132 52.96174622 31.20716858 C52.88925164 36.15713508 52.88925164 36.15713508 50.65820312 38.38818359 C48.73461914 38.67529297 48.73461914 38.67529297 46.41210938 38.73193359 C45.15624023 38.77640625 45.15624023 38.77640625 43.875 38.82177734 C42.56112305 38.85464844 42.56112305 38.85464844 41.22070312 38.88818359 C39.49259929 38.93160971 37.76467924 38.98335119 36.03710938 39.04443359 C34.88577515 39.0724707 34.88577515 39.0724707 33.71118164 39.10107422 C31.35053704 39.27976813 31.35053704 39.27976813 28.65820312 41.38818359 C28.07631047 43.81339854 28.07631047 43.81339854 27.97070312 46.51318359 C27.90496094 47.42326172 27.83921875 48.33333984 27.77148438 49.27099609 C27.73410156 49.96966797 27.69671875 50.66833984 27.65820312 51.38818359 C24.32550224 49.94098098 21.62812332 47.87548727 18.7331543 45.70654297 C11.25823722 40.23789325 5.86523103 38.29590309 -3.39257812 38.45068359 C-6.34179688 38.38818359 -6.34179688 38.38818359 -8.34179688 36.38818359 C-8.55355407 33.91429485 -8.64579158 31.55507235 -8.64257812 29.07958984 C-8.64686325 28.35706528 -8.65114838 27.63454071 -8.65556335 26.89012146 C-8.66130925 25.36108448 -8.66180499 23.83202015 -8.6574707 22.30297852 C-8.65431358 19.96306686 -8.67775446 17.62442293 -8.703125 15.28466797 C-8.70539827 13.79964352 -8.70610136 12.31461568 -8.70507812 10.82958984 C-8.71428787 10.12951309 -8.72349762 9.42943634 -8.73298645 8.70814514 C-8.68697417 3.87700431 -8.68697417 3.87700431 -7.15238953 1.70381165 C-4.68474875 -0.08924624 -3.03650432 0.00753878 0 0 Z " fill="#D8DCEB" transform="translate(76.341796875,215.61181640625)"/>
<path d="M0 0 C2.4375 0.1875 2.4375 0.1875 3.4375 1.1875 C3.12948326 5.5767386 2.5321478 9.23638763 0.875 13.3125 C-0.4954577 16.78613537 -1.13700616 19.41217379 -0.5625 23.1875 C1.7133823 27.41231746 1.7133823 27.41231746 5.4375 30.1875 C7.57988624 30.30640897 9.72564564 30.36664876 11.87109375 30.3984375 C13.8037207 30.44097656 13.8037207 30.44097656 15.77539062 30.484375 C17.82722672 30.5256624 19.87882235 30.56254902 21.9309082 30.58886719 C23.91119577 30.61646701 25.89118342 30.6634434 27.87109375 30.7109375 C29.65084595 30.7406665 29.65084595 30.7406665 31.46655273 30.77099609 C34.4375 31.1875 34.4375 31.1875 36.32519531 32.36376953 C37.88817027 34.92641723 37.80958572 36.85308695 37.80078125 39.84375 C37.80013672 40.94847656 37.79949219 42.05320313 37.79882812 43.19140625 C37.78271484 44.34511719 37.76660156 45.49882813 37.75 46.6875 C37.75322266 47.84121094 37.75644531 48.99492188 37.75976562 50.18359375 C37.70455173 58.7869224 37.70455173 58.7869224 35.4375 62.1875 C33.41268921 62.54826355 33.41268921 62.54826355 30.89599609 62.52807617 C29.48475967 62.52773628 29.48475967 62.52773628 28.04501343 62.52738953 C27.02726837 62.51190567 26.00952332 62.49642181 24.9609375 62.48046875 C23.92055328 62.47622391 22.88016907 62.47197906 21.80825806 62.46760559 C18.47607853 62.45077482 15.14449759 62.41311422 11.8125 62.375 C9.55730038 62.35995887 7.30209131 62.34626947 5.046875 62.33398438 C-0.48978855 62.30085699 -6.02610152 62.2506142 -11.5625 62.1875 C-13.04103833 18.97193674 -13.04103833 18.97193674 -4.5625 2.1875 C-2.5625 0.1875 -2.5625 0.1875 0 0 Z " fill="#D8DCEB" transform="translate(323.5625,67.8125)"/>
<path d="M0 0 C12.54 0 25.08 0 38 0 C38 12.54 38 25.08 38 38 C25.46 38 12.92 38 0 38 C0 25.46 0 12.92 0 0 Z " fill="#D9DDEB" transform="translate(383,223)"/>
<path d="M0 0 C1.50880737 -0.00218285 1.50880737 -0.00218285 3.0480957 -0.00440979 C5.17304381 -0.00275109 7.29800397 0.00880687 9.42285156 0.02954102 C12.67564925 0.05848829 15.9268165 0.05015039 19.1796875 0.03710938 C21.24479959 0.04334708 23.30990653 0.05173827 25.375 0.0625 C26.34800049 0.05956436 27.32100098 0.05662872 28.32348633 0.05360413 C29.23122803 0.0662883 30.13896973 0.07897247 31.07421875 0.09204102 C31.87045654 0.097444 32.66669434 0.10284698 33.48706055 0.1084137 C36.26009266 0.59697485 37.65377482 1.5732251 39.6875 3.49609375 C40.14160156 6.22338867 40.14160156 6.22338867 40.078125 9.4765625 C40.06523437 10.63994141 40.05234375 11.80332031 40.0390625 13.00195312 C40.00554687 14.21689453 39.97203125 15.43183594 39.9375 16.68359375 C39.91945312 17.91013672 39.90140625 19.13667969 39.8828125 20.40039062 C39.83561124 23.43307134 39.76977677 26.46419462 39.6875 29.49609375 C39.09066406 29.18929687 38.49382812 28.8825 37.87890625 28.56640625 C34.45721317 26.89520499 32.577438 26.37260365 28.6875 26.49609375 C24.74889487 28.83696284 21.21561703 31.58045273 17.6875 34.49609375 C13.29876452 30.82388651 9.31218736 27.1409954 5.55859375 22.81640625 C2.76163123 20.84276673 1.03964022 20.98869784 -2.3125 21.49609375 C-5.35585454 23.42454637 -5.35585454 23.42454637 -8.125 25.99609375 C-13.27083333 30.49609375 -13.27083333 30.49609375 -14.3125 30.49609375 C-14.42861395 26.24632329 -14.49972349 21.99696038 -14.5625 17.74609375 C-14.59601563 16.53953125 -14.62953125 15.33296875 -14.6640625 14.08984375 C-14.67695313 12.9296875 -14.68984375 11.76953125 -14.703125 10.57421875 C-14.72407227 9.5059082 -14.74501953 8.43759766 -14.76660156 7.33691406 C-14.3125 4.49609375 -14.3125 4.49609375 -12.93261719 2.1472168 C-8.80650642 -0.45294041 -4.77961465 -0.05518403 0 0 Z " fill="#D6DAE9" transform="translate(163.3125,70.50390625)"/>
<path d="M0 0 C1.11125244 -0.00945648 2.22250488 -0.01891296 3.36743164 -0.02865601 C5.16748657 -0.01954697 5.16748657 -0.01954697 7.00390625 -0.01025391 C8.2355249 -0.01312408 9.46714355 -0.01599426 10.73608398 -0.01895142 C14.00988582 -0.02151799 17.28326162 -0.00943251 20.55700684 0.00732422 C22.5645101 0.01317806 24.57161994 0.00734564 26.57910156 -0.00292969 C30.4292232 -0.02142621 34.27876059 -0.01922633 38.12890625 -0.01025391 C39.32894287 -0.0163266 40.52897949 -0.02239929 41.76538086 -0.02865601 C43.43225952 -0.01447128 43.43225952 -0.01447128 45.1328125 0 C46.6014978 0.00358017 46.6014978 0.00358017 48.09985352 0.00723267 C50.56640625 0.38818359 50.56640625 0.38818359 52.41381836 1.68978882 C53.56640625 3.38818359 53.56640625 3.38818359 53.44140625 6.95068359 C52.56640625 10.38818359 52.56640625 10.38818359 49.56640625 12.38818359 C47.18251038 12.65560913 47.18251038 12.65560913 44.33227539 12.67871094 C43.26429214 12.69147064 42.1963089 12.70423035 41.09596252 12.71737671 C39.36623451 12.72071518 39.36623451 12.72071518 37.6015625 12.72412109 C36.41670761 12.73077789 35.23185272 12.73743469 34.01109314 12.74429321 C31.50358637 12.75442514 28.99605261 12.75911007 26.48852539 12.75878906 C22.64749861 12.76316242 18.80762028 12.79947923 14.96679688 12.83740234 C12.53255602 12.84327023 10.0983097 12.84723981 7.6640625 12.84912109 C6.51293472 12.86349213 5.36180695 12.87786316 4.17579651 12.89266968 C3.1046611 12.88651642 2.0335257 12.88036316 0.92993164 12.87402344 C-0.48212807 12.87829849 -0.48212807 12.87829849 -1.92271423 12.88265991 C-5.19195063 12.23883771 -6.38697765 10.9641571 -8.43359375 8.38818359 C-8.87109375 5.82568359 -8.87109375 5.82568359 -8.43359375 3.38818359 C-6.0149449 0.07285735 -3.97364204 0.00968643 0 0 Z " fill="#040405" transform="translate(362.43359375,360.61181640625)"/>
<path d="M0 0 C3.55498342 2.88906434 6.92373846 5.74046852 9.8125 9.3125 C12.31341061 12.38504732 12.93060772 12.88018014 16.7890625 13.3125 C20.81141255 12.92103041 22.34646398 11.61927439 25.375 9 C26.24898437 8.2575 27.12296875 7.515 28.0234375 6.75 C29.00183594 5.88375 29.00183594 5.88375 30 5 C34.39921581 6.6266008 37.03232394 8.26920724 40 12 C40.5625 15.125 40.5625 15.125 40 18 C37.18358187 20.66745401 35.2255301 21.37800393 31.38671875 21.40405273 C30.0251062 21.42307899 30.0251062 21.42307899 28.63598633 21.44248962 C27.1764856 21.43808617 27.1764856 21.43808617 25.6875 21.43359375 C24.68162842 21.4388356 23.67575684 21.44407745 22.6394043 21.44947815 C20.51449506 21.45589648 18.38955029 21.45456382 16.26464844 21.44604492 C13.01172757 21.4375307 9.76056008 21.46630675 6.5078125 21.49804688 C4.44270886 21.49965886 2.37760211 21.49908141 0.3125 21.49609375 C-0.66050049 21.50732773 -1.63350098 21.51856171 -2.63598633 21.53013611 C-9.35943474 21.46065341 -9.35943474 21.46065341 -12.61035156 19.12280273 C-14 17 -14 17 -14.546875 14.5390625 C-13.77375405 10.94957238 -12.03233286 9.71505452 -9.25 7.375 C-8.36828125 6.61960937 -7.4865625 5.86421875 -6.578125 5.0859375 C-4.41836081 3.33849193 -2.23964034 1.64310062 0 0 Z " fill="#6CAB43" transform="translate(163,105)"/>
<path d="M0 0 C0.82773422 -0.0127597 1.65546844 -0.02551941 2.50828552 -0.03866577 C3.84428551 -0.04200424 3.84428551 -0.04200424 5.20727539 -0.04541016 C6.12577774 -0.05206696 7.04428009 -0.05872375 7.99061584 -0.06558228 C9.93317665 -0.07570714 11.87577222 -0.08039935 13.81835938 -0.08007812 C16.79037756 -0.08445124 19.76091064 -0.12077192 22.73266602 -0.15869141 C24.62003073 -0.1645596 26.50740249 -0.16852897 28.39477539 -0.17041016 C29.72773903 -0.19196671 29.72773903 -0.19196671 31.08763123 -0.21395874 C37.20357725 -0.16866614 37.20357725 -0.16866614 40.46728516 2.08886719 C41.86743164 4.29052734 41.86743164 4.29052734 41.74243164 7.97802734 C41.45368164 9.07115234 41.16493164 10.16427734 40.86743164 11.29052734 C38.56124066 12.44362283 37.21525343 12.4288488 34.64892578 12.45166016 C33.77784683 12.4612677 32.90676788 12.47087524 32.0092926 12.48077393 C31.06658005 12.4850238 30.12386749 12.48927368 29.15258789 12.49365234 C27.7025663 12.50220245 27.7025663 12.50220245 26.22325134 12.51092529 C24.1763519 12.5203807 22.12943719 12.52691142 20.08251953 12.53076172 C16.94610176 12.54047725 13.81033642 12.57149967 10.67407227 12.60302734 C8.68774804 12.60955627 6.70141912 12.61480717 4.71508789 12.61865234 C3.3040554 12.63717255 3.3040554 12.63717255 1.86451721 12.65606689 C0.9902861 12.6530658 0.11605499 12.6500647 -0.78466797 12.64697266 C-1.93810951 12.6524411 -1.93810951 12.6524411 -3.11485291 12.65802002 C-5.70653568 12.18598892 -6.60634165 11.4169367 -8.13256836 9.29052734 C-8.00756836 5.72802734 -8.00756836 5.72802734 -7.13256836 2.29052734 C-4.08101058 0.25615549 -3.43887103 0.03604153 0 0 Z " fill="#060709" transform="translate(239.132568359375,390.70947265625)"/>
<path d="M0 0 C1.08003296 0.00326294 1.08003296 0.00326294 2.18188477 0.0065918 C4.37697108 0.0097488 6.57070573 -0.01369198 8.765625 -0.0390625 C10.15950351 -0.04133581 11.55338564 -0.04203884 12.94726562 -0.04101562 C14.85270142 -0.04548706 14.85270142 -0.04548706 16.79663086 -0.05004883 C19.95117188 0.32226562 19.95117188 0.32226562 21.89672852 1.62231445 C22.95117188 3.32226562 22.95117188 3.32226562 22.82617188 6.88476562 C21.95117188 10.32226562 21.95117188 10.32226562 18.95117188 12.32226562 C14.31924569 12.76905607 9.66474894 12.64636432 5.01367188 12.63476562 C3.72525391 12.65087891 2.43683594 12.66699219 1.109375 12.68359375 C-0.7459082 12.68456055 -0.7459082 12.68456055 -2.63867188 12.68554688 C-4.33817993 12.69001831 -4.33817993 12.69001831 -6.07202148 12.69458008 C-9.36519461 12.28269711 -10.76782751 11.71170556 -13.04882812 9.32226562 C-13.42382812 5.75976562 -13.42382812 5.75976562 -13.04882812 2.32226562 C-9.60779247 -1.11877003 -4.64831117 0.01861075 0 0 Z " fill="#0A0902" transform="translate(239.048828125,300.677734375)"/>
<path d="M0 0 C0.98178223 -0.00430527 0.98178223 -0.00430527 1.98339844 -0.00869751 C3.36524319 -0.01073618 4.74711693 -0.00521996 6.12890625 0.00732422 C8.2428445 0.02338314 10.35487113 0.00747149 12.46875 -0.01171875 C13.81250422 -0.00973628 15.15625724 -0.00589252 16.5 0 C17.72203125 0.00338379 18.9440625 0.00676758 20.203125 0.01025391 C23.25 0.3984375 23.25 0.3984375 25.1484375 1.73583984 C26.87601751 4.34329105 26.62981601 6.35990942 26.25 9.3984375 C25.1484375 11.06103516 25.1484375 11.06103516 23.25 12.3984375 C20.203125 12.78662109 20.203125 12.78662109 16.5 12.796875 C15.51821777 12.80118027 15.51821777 12.80118027 14.51660156 12.80557251 C13.13475681 12.80761118 11.75288307 12.80209496 10.37109375 12.78955078 C8.2571555 12.77349186 6.14512887 12.78940351 4.03125 12.80859375 C2.68749578 12.80661128 1.34374276 12.80276752 0 12.796875 C-1.22203125 12.79349121 -2.4440625 12.79010742 -3.703125 12.78662109 C-6.75 12.3984375 -6.75 12.3984375 -8.6484375 11.06103516 C-10.37601751 8.45358395 -10.12981601 6.43696558 -9.75 3.3984375 C-7.24492436 -0.38249449 -4.26777059 0.0118174 0 0 Z " fill="#030300" transform="translate(259.75,274.6015625)"/>
<path d="M0 0 C1.74796875 -0.02126953 1.74796875 -0.02126953 3.53125 -0.04296875 C6.5 0.1875 6.5 0.1875 8.5 2.1875 C8.875 5.625 8.875 5.625 8.5 9.1875 C5.64855364 12.01290576 3.45967337 12.61896391 -0.5 12.625 C-3.80942616 12.50767913 -5.27916009 12.3158953 -8.1875 10.625 C-10.05737427 7.15237636 -9.48695477 4.92382878 -8.5 1.1875 C-5.65161879 -0.2366906 -3.17212092 0.01754492 0 0 Z " fill="#0B0A02" transform="translate(277.5,300.8125)"/>
<path d="M0 0 C1.051875 -0.00773437 2.10375 -0.01546875 3.1875 -0.0234375 C6 0.375 6 0.375 7.8515625 1.7109375 C9.64408122 4.30826054 9.38278728 6.31270174 9 9.375 C7.8515625 11.0390625 7.8515625 11.0390625 6 12.375 C3.1875 12.7734375 3.1875 12.7734375 0 12.75 C-1.051875 12.75773437 -2.10375 12.76546875 -3.1875 12.7734375 C-6 12.375 -6 12.375 -7.8515625 11.0390625 C-9.64408122 8.44173946 -9.38278728 6.43729826 -9 3.375 C-6.56651429 -0.15107113 -4.09367786 -0.03010057 0 0 Z " fill="#050501" transform="translate(235,274.625)"/>
<path d="M0 0 C0 7.26 0 14.52 0 22 C-3.63 20.02 -7.26 18.04 -11 16 C-11.879018 9.49526683 -11.879018 9.49526683 -11 6 C-8.28972353 3.52645 -3.87573472 0 0 0 Z " fill="#B8C5EE" transform="translate(444,231)"/>
</svg>
