<?xml version="1.0" encoding="UTF-8"?>
<svg version="1.1" xmlns="http://www.w3.org/2000/svg" width="512" height="512">
<path d="M0 0 C2.96858157 2.20740681 3.82865791 3.48597373 5 7 C5.09173925 8.82870681 5.12374642 10.66063471 5.12304783 12.49164104 C5.12503888 13.64016794 5.12702993 14.78869483 5.12908131 15.97202557 C5.12616847 17.23951809 5.12325563 18.50701061 5.12025452 19.81291199 C5.12069037 21.16843588 5.12156555 22.52395969 5.12284368 23.87948304 C5.12508577 27.61243192 5.12107125 31.34535226 5.11606562 35.0782975 C5.11175722 39.10077724 5.11320782 43.1232553 5.1139679 47.14573669 C5.11449288 54.11764598 5.11134871 61.08954593 5.10573006 68.06145287 C5.09761165 78.14172688 5.09499949 88.22199638 5.09374207 98.30227331 C5.09155208 114.65586381 5.08489345 131.00944932 5.07543945 147.36303711 C5.06626395 163.25138321 5.05919525 179.13972796 5.05493164 195.02807617 C5.05466364 196.01701317 5.05439565 197.00595017 5.05411953 198.02485496 C5.05204017 205.758704 5.05008322 213.49255308 5.04816496 221.22640216 C5.03872701 259.15093935 5.01860972 297.07546407 5 335 C-61.99 335 -128.98 335 -198 335 C-198.0806627 272.13238933 -198.0806627 272.13238933 -198.09765625 245.92382812 C-198.10157217 239.92456044 -198.10561319 233.92529285 -198.10986328 227.92602539 C-198.11039078 227.17408396 -198.11091828 226.42214252 -198.11146176 225.64741498 C-198.12016745 213.49770029 -198.13593897 201.34800447 -198.15430559 189.19830098 C-198.17298899 176.73538091 -198.18411341 164.27247074 -198.18817699 151.80953723 C-198.1909253 144.11526616 -198.19961485 136.42104841 -198.21583293 128.72679374 C-198.22762495 122.83321915 -198.2289153 116.93967212 -198.22621536 111.04608536 C-198.22676762 108.6236685 -198.23077263 106.20124971 -198.23841095 103.77884483 C-198.24829937 100.48238566 -198.24599124 97.18615828 -198.24050903 93.88969421 C-198.24633472 92.92180472 -198.2521604 91.95391522 -198.25816262 90.95669574 C-198.25418052 90.0763903 -198.25019842 89.19608487 -198.24609566 88.28910351 C-198.2468551 87.52776425 -198.24761454 86.76642498 -198.24839699 85.98201483 C-198 84 -198 84 -196 81 C-193.5399249 79.75830333 -191.12666186 78.66368531 -188.5859375 77.61328125 C-187.42225395 77.1191272 -187.42225395 77.1191272 -186.23506165 76.61499023 C-184.5274194 75.89120141 -182.8179778 75.17164729 -181.10702515 74.45571899 C-178.31636113 73.2879625 -175.53038539 72.10960648 -172.74536133 70.9284668 C-168.6681583 69.2000603 -164.58924056 67.47578654 -160.50927734 65.75390625 C-150.39457916 61.48021382 -140.3037071 57.15076736 -130.21182251 52.82354736 C-126.66134827 51.30128749 -123.11035236 49.78024914 -119.55932617 48.25927734 C-100.87162925 40.25104782 -82.21710028 32.16758757 -63.57177734 24.0612793 C-49.04084044 17.74499026 -34.49271851 11.47058101 -19.9206543 5.24975586 C-19.25113739 4.96377029 -18.58162048 4.67778473 -17.89181519 4.38313293 C-16.12779987 3.62988779 -14.36335666 2.87764494 -12.59887695 2.12548828 C-8.24284125 0.23903224 -4.81092755 -0.7049676 0 0 Z M-134.94203186 123.90145874 C-136.16668156 125.91557892 -136.16668156 125.91557892 -135.9375 128.0625 C-134.68256909 130.65602387 -133.48320199 131.5246402 -131 133 C-127.83869763 133.45477488 -127.83869763 133.45477488 -124.27539062 133.38818359 C-123.60823532 133.39344055 -122.94108002 133.39869751 -122.25370789 133.40411377 C-120.0543152 133.41728861 -117.8556497 133.40858526 -115.65625 133.3984375 C-114.124551 133.40045897 -112.59285294 133.40337103 -111.06115723 133.40713501 C-107.85334089 133.41155493 -104.64577542 133.40513821 -101.43798828 133.39111328 C-97.32869753 133.37402133 -93.2199946 133.38386433 -89.1107254 133.40183067 C-85.9485431 133.41267763 -82.78649988 133.40921804 -79.62431335 133.4014473 C-78.10926748 133.3994478 -76.59420893 133.40189579 -75.07917786 133.40888596 C-72.96064872 133.41651575 -70.84306798 133.40487633 -68.72460938 133.38818359 C-67.51977905 133.38579681 -66.31494873 133.38341003 -65.0736084 133.38095093 C-61.73712984 132.9674192 -60.31652594 132.40899824 -58 130 C-57.49989476 126.95769177 -57.49989476 126.95769177 -58 124 C-60.86634821 121.13365179 -62.86556456 121.73332366 -66.88061523 121.70947266 C-67.58809906 121.70275543 -68.29558289 121.69603821 -69.02450562 121.68911743 C-71.36927259 121.67007918 -73.71375425 121.66621042 -76.05859375 121.6640625 C-77.68522765 121.65763882 -79.31186038 121.65091079 -80.93849182 121.64389038 C-84.35070475 121.6319032 -87.76281632 121.62821105 -91.17504883 121.62939453 C-95.5513586 121.62959785 -99.92701993 121.60228902 -104.30317593 121.56785011 C-107.66346736 121.54563266 -111.02360144 121.54155539 -114.38395882 121.54261398 C-115.99754129 121.54025049 -117.61112761 121.53138501 -119.22463799 121.51594925 C-121.48021978 121.49639129 -123.73438653 121.50208543 -125.98999023 121.51416016 C-127.27413315 121.51131012 -128.55827606 121.50846008 -129.8813324 121.50552368 C-133.07135922 121.70275552 -133.07135922 121.70275552 -134.94203186 123.90145874 Z M-136 176 C-135.83849795 179.39154295 -135.41703243 180.58296757 -133 183 C-129.90354872 183.30810242 -129.90354872 183.30810242 -126.21118164 183.25878906 C-125.51345139 183.2622937 -124.81572113 183.26579834 -124.09684753 183.26940918 C-121.78451664 183.2782299 -119.4724904 183.27237566 -117.16015625 183.265625 C-115.55594321 183.26697171 -113.95173056 183.26891229 -112.34751892 183.27142334 C-108.98237225 183.27437519 -105.61733163 183.27007563 -102.25219727 183.26074219 C-97.936603 183.24935674 -93.62125774 183.2559009 -89.30567265 183.26788712 C-85.99171572 183.27511194 -82.67781788 183.27281477 -79.36385918 183.26763153 C-77.77262785 183.26629628 -76.18139118 183.26793841 -74.59016609 183.27259064 C-72.36603708 183.27766512 -70.14231181 183.26993253 -67.91821289 183.25878906 C-66.65183487 183.25719788 -65.38545685 183.25560669 -64.08070374 183.25396729 C-60.82977237 183.23640568 -60.82977237 183.23640568 -58 181 C-57.61423208 177.97815129 -57.38349484 175.93485603 -59.09877014 173.33384705 C-61.95825247 171.3277182 -64.32915447 171.61101604 -67.79467773 171.59594727 C-68.48119415 171.58908401 -69.16771057 171.58222076 -69.87503052 171.57514954 C-72.14476191 171.55684589 -74.41380438 171.56072394 -76.68359375 171.56640625 C-78.26156337 171.56184594 -79.839531 171.55654081 -81.41749573 171.55052185 C-84.72543402 171.54158364 -88.03313098 171.54402158 -91.34106445 171.55395508 C-95.57941047 171.56544249 -99.81692307 171.54524121 -104.05515957 171.51603794 C-107.31428822 171.49768712 -110.57321676 171.49796616 -113.83238411 171.50367546 C-115.39488964 171.50382883 -116.9574086 171.49777135 -118.51986504 171.48538399 C-120.70575004 171.47049687 -122.8900909 171.48113196 -125.07592773 171.49829102 C-126.31930405 171.49845718 -127.56268036 171.49862335 -128.84373474 171.49879456 C-132.56718104 172.09006665 -133.79586606 172.98559089 -136 176 Z M-134.94203186 224.90145874 C-136.16668156 226.91557892 -136.16668156 226.91557892 -135.9375 229.0625 C-134.68256909 231.65602387 -133.48320199 232.5246402 -131 234 C-127.83869763 234.45477488 -127.83869763 234.45477488 -124.27539062 234.38818359 C-123.60823532 234.39344055 -122.94108002 234.39869751 -122.25370789 234.40411377 C-120.0543152 234.41728861 -117.8556497 234.40858526 -115.65625 234.3984375 C-114.124551 234.40045897 -112.59285294 234.40337103 -111.06115723 234.40713501 C-107.85334089 234.41155493 -104.64577542 234.40513821 -101.43798828 234.39111328 C-97.32869753 234.37402133 -93.2199946 234.38386433 -89.1107254 234.40183067 C-85.9485431 234.41267763 -82.78649988 234.40921804 -79.62431335 234.4014473 C-78.10926748 234.3994478 -76.59420893 234.40189579 -75.07917786 234.40888596 C-72.96064872 234.41651575 -70.84306798 234.40487633 -68.72460938 234.38818359 C-67.51977905 234.38579681 -66.31494873 234.38341003 -65.0736084 234.38095093 C-61.73712984 233.9674192 -60.31652594 233.40899824 -58 231 C-57.49989476 227.95769177 -57.49989476 227.95769177 -58 225 C-60.86634821 222.13365179 -62.86556456 222.73332366 -66.88061523 222.70947266 C-67.58809906 222.70275543 -68.29558289 222.69603821 -69.02450562 222.68911743 C-71.36927259 222.67007918 -73.71375425 222.66621042 -76.05859375 222.6640625 C-77.68522765 222.65763882 -79.31186038 222.65091079 -80.93849182 222.64389038 C-84.35070475 222.6319032 -87.76281632 222.62821105 -91.17504883 222.62939453 C-95.5513586 222.62959785 -99.92701993 222.60228902 -104.30317593 222.56785011 C-107.66346736 222.54563266 -111.02360144 222.54155539 -114.38395882 222.54261398 C-115.99754129 222.54025049 -117.61112761 222.53138501 -119.22463799 222.51594925 C-121.48021978 222.49639129 -123.73438653 222.50208543 -125.98999023 222.51416016 C-127.27413315 222.51131012 -128.55827606 222.50846008 -129.8813324 222.50552368 C-133.07135922 222.70275552 -133.07135922 222.70275552 -134.94203186 224.90145874 Z M-136 277 C-136.08805146 279.6433774 -136.08805146 279.6433774 -135 282 C-131.33735226 284.44176516 -129.55669643 284.25850402 -125.18945312 284.2746582 C-124.15726906 284.2823246 -124.15726906 284.2823246 -123.10423279 284.29014587 C-120.82981672 284.30404525 -118.55570349 284.3030851 -116.28125 284.30078125 C-114.7008859 284.3046676 -113.12052283 284.30900214 -111.54016113 284.31376648 C-108.22807427 284.32122912 -104.91609401 284.32093683 -101.60400391 284.31567383 C-97.35673646 284.30987475 -93.10990446 284.32682024 -88.86270905 284.3500185 C-85.59935957 284.36473877 -82.33611544 284.36562997 -79.07273865 284.36250877 C-77.50661862 284.36302271 -75.9404928 284.36827393 -74.37440491 284.37832069 C-72.18616278 284.39063714 -69.99877499 284.38392356 -67.81054688 284.37231445 C-66.56494995 284.37294388 -65.31935303 284.3735733 -64.03601074 284.3742218 C-61.02653155 284.24976567 -61.02653155 284.24976567 -59.09777832 282.63298035 C-57.51898322 280.28447216 -57.58497782 278.76681453 -58 276 C-59.05095087 274.23668827 -59.05095087 274.23668827 -61 273 C-64.14278339 272.53486777 -64.14278339 272.53486777 -67.79467773 272.59594727 C-68.48119415 272.58908401 -69.16771057 272.58222076 -69.87503052 272.57514954 C-72.14476191 272.55684589 -74.41380438 272.56072394 -76.68359375 272.56640625 C-78.26156337 272.56184594 -79.839531 272.55654081 -81.41749573 272.55052185 C-84.72543402 272.54158364 -88.03313098 272.54402158 -91.34106445 272.55395508 C-95.57941047 272.56544249 -99.81692307 272.54524121 -104.05515957 272.51603794 C-107.31428822 272.49768712 -110.57321676 272.49796616 -113.83238411 272.50367546 C-115.39488964 272.50382883 -116.9574086 272.49777135 -118.51986504 272.48538399 C-120.70575004 272.47049687 -122.8900909 272.48113196 -125.07592773 272.49829102 C-126.31930405 272.49845718 -127.56268036 272.49862335 -128.84373474 272.49879456 C-132.56813293 273.0902178 -133.79215583 273.98806138 -136 277 Z " fill="#076EB5" transform="translate(382,92)"/>
<path d="M0 0 C84 0 84 0 89 3 C89.49982825 5.98970086 89.65469166 8.41562918 89.60127258 11.40910339 C89.60554471 12.27737977 89.60981683 13.14565614 89.61421841 14.04024392 C89.62248021 16.96118548 89.59491109 19.88070357 89.56762695 22.80151367 C89.56621717 24.89059922 89.56700709 26.97968726 89.56983948 29.06877136 C89.57127776 34.75044635 89.54182104 40.43159667 89.50696969 46.1131494 C89.47577488 52.04686707 89.47278088 57.98059592 89.46684265 63.91438293 C89.45128399 75.15542742 89.41022804 86.39622962 89.3600952 97.63716727 C89.30426472 110.43260612 89.27673106 123.22805636 89.25161803 136.02358663 C89.199314 162.34922315 89.10759685 188.6745274 89 215 C59.63 215 30.26 215 0 215 C0 144.05 0 73.1 0 0 Z " fill="#00497D" transform="translate(398,212)"/>
<path d="M0 0 C1.09988876 -0.00679667 1.09988876 -0.00679667 2.2219975 -0.01373065 C4.66216278 -0.02632121 7.10210334 -0.02475776 9.54229736 -0.02310181 C11.29886154 -0.02909045 13.05542309 -0.03589677 14.8119812 -0.04345703 C19.57249816 -0.06109121 24.33294318 -0.06581136 29.09348965 -0.0670886 C32.07144095 -0.06851236 35.04937408 -0.07278623 38.02732086 -0.07808304 C48.42718157 -0.0965756 58.82699107 -0.10475472 69.22686768 -0.10317993 C78.90340235 -0.10197912 88.57971377 -0.12307158 98.25619197 -0.15466726 C106.57831515 -0.18086713 114.90036557 -0.19154565 123.22252965 -0.19026911 C128.18656727 -0.18976052 133.15040643 -0.1953866 138.11440277 -0.21662521 C142.78650998 -0.23606989 147.45823072 -0.23608966 152.13035202 -0.22159195 C153.83827915 -0.21951038 155.54623086 -0.22416559 157.25411606 -0.23631287 C170.7031524 -0.32571969 181.17062889 1.09150229 191.23077393 10.75180054 C195.95096247 16.22892021 199.54837822 23.16881447 199.49639893 30.49789429 C199.49317627 31.30033569 199.48995361 32.1027771 199.4866333 32.92953491 C199.47825439 33.76291382 199.46987549 34.59629272 199.46124268 35.45492554 C199.45673096 36.29990601 199.45221924 37.14488647 199.4475708 38.01547241 C199.43579671 40.09948708 199.41786158 42.1834653 199.39874268 44.26742554 C197.79842131 45.10811969 196.19333096 45.93974058 194.58624268 46.76742554 C193.69292236 47.23148804 192.79960205 47.69555054 191.87921143 48.17367554 C189.39874268 49.26742554 189.39874268 49.26742554 186.39874268 49.26742554 C186.38939697 48.70346069 186.38005127 48.13949585 186.37042236 47.55844116 C186.31616781 44.96060561 186.23263585 42.36446635 186.14874268 39.76742554 C186.13456299 38.88055054 186.1203833 37.99367554 186.10577393 37.07992554 C185.8612202 30.42806415 184.6238737 24.75317885 179.987854 19.74252319 C174.6755551 15.0444562 170.12637761 14.01817524 163.16966248 14 C162.45232966 13.99546889 161.73499685 13.99093777 160.99592668 13.98626935 C158.59782482 13.97363259 156.19995027 13.97524524 153.80181885 13.97689819 C152.08009042 13.97091246 150.35836467 13.96410681 148.63664246 13.95654297 C143.96298236 13.93887966 139.2893955 13.93418743 134.61570525 13.9329114 C131.69440624 13.93148935 128.77312583 13.92721872 125.85183144 13.92191696 C115.65643762 13.90341512 105.46109609 13.89524649 95.26568604 13.89682007 C85.76863146 13.89802129 76.27180421 13.87692308 66.77480716 13.84533274 C58.61582694 13.81916223 50.45692093 13.80845311 42.29789907 13.80973089 C37.42726449 13.81024032 32.55683193 13.80456744 27.68623924 13.78337479 C23.1036298 13.76397954 18.5214148 13.7638767 13.93879128 13.77840805 C12.26024422 13.7804957 10.58167239 13.77579784 8.90316772 13.76368713 C-4.07595463 13.43807449 -4.07595463 13.43807449 -15.10082722 19.67934608 C-19.23417707 24.26391464 -20.84358416 28.59949772 -20.87973022 34.69010925 C-20.89089371 35.76558014 -20.90205719 36.84105103 -20.91355896 37.94911194 C-20.91571915 39.11867935 -20.91787933 40.28824677 -20.92010498 41.49325562 C-20.93517342 43.35240601 -20.93517342 43.35240601 -20.95054626 45.24911499 C-20.97610984 48.63924313 -20.99298217 52.02920446 -21.00597429 55.41938996 C-21.02162455 58.96551904 -21.04840871 62.51156372 -21.07400513 66.05763245 C-21.12075943 72.76875994 -21.1575197 79.47990337 -21.190678 86.19111031 C-21.22892309 93.83321285 -21.27832698 101.47523055 -21.32866216 109.11726153 C-21.43193218 124.83392151 -21.52120856 140.55062909 -21.60125732 156.26742554 C-20.65250732 156.22617554 -19.70375732 156.18492554 -18.72625732 156.14242554 C-15.60125732 156.26742554 -15.60125732 156.26742554 -13.60125732 158.26742554 C-13.0253034 163.45101085 -13.0253034 163.45101085 -13.60125732 166.26742554 C-16.43778883 168.72064198 -17.85249229 169.26742554 -21.60125732 169.26742554 C-21.60125732 173.22742554 -21.60125732 177.18742554 -21.60125732 181.26742554 C-20.24000732 181.20555054 -18.87875732 181.14367554 -17.47625732 181.07992554 C-13.09801828 181.10054519 -10.27199228 181.70644766 -6.60125732 184.26742554 C-1.84760553 189.20951037 -2.36027351 193.64054365 -2.48016357 200.27328491 C-2.55956559 202.7693258 -2.67046334 205.26460667 -2.81610107 207.75765991 C-2.88774155 215.33164975 -2.23787681 218.98797565 2.71659851 224.56246948 C14.05239408 237.44356573 11.8738545 253.51277441 11.39758301 269.65090942 C11.31519071 272.91356232 11.29003443 276.17557489 11.2668829 279.43910694 C11.23700773 283.34708034 11.17750986 287.25441325 11.11358643 291.16195679 C11.10339918 291.9006431 11.09321194 292.63932941 11.08271599 293.40040016 C11.0479467 295.48681893 10.9924251 297.57157319 10.92974854 299.65731812 C10.8854496 301.43239494 10.8854496 301.43239494 10.84025574 303.24333191 C10.36321661 306.51075733 9.77166947 307.99123945 7.39874268 310.26742554 C6.40874268 310.26742554 5.41874268 310.26742554 4.39874268 310.26742554 C4.40762512 310.87241882 4.41650757 311.47741211 4.42565918 312.10073853 C4.51411861 318.39464881 4.57447109 324.68838267 4.61846924 330.98275757 C4.63859082 333.33211438 4.66589119 335.68142108 4.70050049 338.03060913 C4.74899307 341.40654868 4.77170625 344.7818264 4.78936768 348.15805054 C4.81001282 349.20922058 4.83065796 350.26039063 4.85192871 351.34341431 C4.8523819 352.81448639 4.8523819 352.81448639 4.85284424 354.3152771 C4.86172668 355.17687439 4.87060913 356.03847168 4.87976074 356.92617798 C4.21424093 360.1654464 3.03761046 361.31407205 0.39874268 363.26742554 C-2.25726318 363.78208923 -2.25726318 363.78208923 -5.31610107 363.8008728 C-6.4640918 363.81670914 -7.61208252 363.83254547 -8.79486084 363.84886169 C-10.6480896 363.84142189 -10.6480896 363.84142189 -12.53875732 363.83383179 C-13.81098145 363.84003036 -15.08320557 363.84622894 -16.39398193 363.85261536 C-19.08439993 363.85972091 -21.77332406 363.85847028 -24.46356201 363.84384155 C-27.90739164 363.82664581 -31.34955403 363.85015823 -34.79319763 363.88533115 C-38.08340434 363.91259563 -41.3734695 363.90256971 -44.66375732 363.89633179 C-46.51698608 363.9162191 -46.51698608 363.9162191 -48.40765381 363.93650818 C-49.55564453 363.92397507 -50.70363525 363.91144196 -51.88641357 363.89852905 C-52.89583008 363.89756729 -53.90524658 363.89660553 -54.94525146 363.89561462 C-57.60125732 363.26742554 -57.60125732 363.26742554 -59.93005371 361.03884888 C-61.70695463 358.0921435 -62.09112747 356.6826216 -62.05535889 353.29354858 C-62.05505676 352.33293015 -62.05475464 351.37231171 -62.05444336 350.38258362 C-62.03379822 349.35844864 -62.01315308 348.33431366 -61.99188232 347.27914429 C-61.98622253 346.22080887 -61.98056274 345.16247345 -61.97473145 344.07206726 C-61.95238081 340.69922227 -61.90218508 337.32744824 -61.85125732 333.95492554 C-61.83119071 331.66522736 -61.81294022 329.3755125 -61.79656982 327.08578491 C-61.75252038 321.4793011 -61.68562086 315.87343984 -61.60125732 310.26742554 C-62.22000732 310.18492554 -62.83875732 310.10242554 -63.47625732 310.01742554 C-65.60125732 309.26742554 -65.60125732 309.26742554 -66.8301239 307.61253357 C-67.82673565 304.58171926 -67.89373976 301.9383406 -67.93939209 298.74569702 C-67.95669624 297.77646049 -67.95669624 297.77646049 -67.97434998 296.78764343 C-68.00859058 294.65457687 -68.02715129 292.52180006 -68.04266357 290.38851929 C-68.04956648 289.65570299 -68.05646938 288.9228867 -68.06358147 288.16786385 C-68.09939922 284.28430094 -68.12294197 280.40088275 -68.13665771 276.5171814 C-68.15314294 272.53129597 -68.21147489 268.54720457 -68.27980137 264.56191921 C-68.32488489 261.4758065 -68.3381743 258.39011122 -68.34327507 255.30369759 C-68.35110674 253.83619246 -68.37056062 252.36869632 -68.40249825 250.90151787 C-68.64468111 238.98315467 -65.57875274 231.83677968 -57.69891357 222.95492554 C-54.01985462 217.90317315 -54.98012736 211.22916673 -55.03875732 205.26742554 C-55.1408047 190.10161531 -55.1408047 190.10161531 -50.60125732 184.26742554 C-45.50682234 180.50724733 -40.68630743 181.02073432 -34.60125732 181.26742554 C-34.60125732 177.30742554 -34.60125732 173.34742554 -34.60125732 169.26742554 C-35.99344482 169.11273804 -35.99344482 169.11273804 -37.41375732 168.95492554 C-40.60125732 168.26742554 -40.60125732 168.26742554 -42.47625732 167.07992554 C-44.16003281 164.36717614 -43.99141294 162.38867043 -43.60125732 159.26742554 C-42.47625732 157.39242554 -42.47625732 157.39242554 -40.60125732 156.26742554 C-38.60176592 156.22232423 -36.60066271 156.21865955 -34.60125732 156.26742554 C-34.6049445 155.60665827 -34.60863167 154.945891 -34.61243057 154.26510048 C-34.7009327 138.15538687 -34.76704015 122.04575833 -34.80850601 105.93586159 C-34.8290938 98.14508942 -34.85714154 90.35447996 -34.90301514 82.56381226 C-34.94299934 75.77007189 -34.96871762 68.97644942 -34.9776113 62.18259466 C-34.98280659 58.58831324 -34.99493718 54.99436898 -35.02417755 51.40019608 C-35.05662593 47.37873908 -35.05720936 43.35786083 -35.05535889 39.33627319 C-35.07693054 37.56680832 -35.07693054 37.56680832 -35.09893799 35.76159668 C-35.04516555 24.93029189 -32.23611543 17.10952607 -24.74578857 9.24398804 C-17.46174735 2.5304637 -9.93864866 0.02549378 0 0 Z M-44.49969482 275.16952515 C-45.77309786 277.17717209 -45.77309786 277.17717209 -45.53875732 279.32992554 C-44.30214856 281.88558365 -43.01853707 282.78477564 -40.60125732 284.26742554 C-37.9647648 284.70992092 -37.9647648 284.70992092 -35.10125732 284.63070679 C-34.04938232 284.63006226 -32.99750732 284.62941772 -31.91375732 284.62875366 C-30.27406982 284.60458374 -30.27406982 284.60458374 -28.60125732 284.57992554 C-27.50813232 284.58314819 -26.41500732 284.58637085 -25.28875732 284.58969116 C-18.61220996 284.76062327 -18.61220996 284.76062327 -12.60125732 282.26742554 C-11.51902366 279.35737651 -11.51902366 279.35737651 -11.60125732 276.26742554 C-12.64429595 274.47191773 -12.64429595 274.47191773 -14.60125732 273.26742554 C-19.23824308 272.613076 -23.92338116 272.80435067 -28.60125732 272.82992554 C-29.8980542 272.80994507 -31.19485107 272.7899646 -32.53094482 272.76937866 C-33.77102295 272.77002319 -35.01110107 272.77066772 -36.28875732 272.77133179 C-37.42699951 272.76947876 -38.5652417 272.76762573 -39.73797607 272.76571655 C-42.70018202 273.00181733 -42.70018202 273.00181733 -44.49969482 275.16952515 Z M-48.60125732 310.26742554 C-48.60125732 314.88742554 -48.60125732 319.50742554 -48.60125732 324.26742554 C-46.49750732 324.37055054 -44.39375732 324.47367554 -42.22625732 324.57992554 C-38.64031982 324.75570679 -38.64031982 324.75570679 -35.60125732 325.26742554 C-33.45363549 328.4888583 -33.04018933 329.52697223 -33.60125732 333.26742554 C-37.9455551 337.47915084 -42.82285142 336.9234728 -48.60125732 337.26742554 C-48.60125732 341.55742554 -48.60125732 345.84742554 -48.60125732 350.26742554 C-35.40125732 350.26742554 -22.20125732 350.26742554 -8.60125732 350.26742554 C-8.60125732 345.97742554 -8.60125732 341.68742554 -8.60125732 337.26742554 C-10.33375732 337.18492554 -12.06625732 337.10242554 -13.85125732 337.01742554 C-17.39864818 336.6837148 -19.28474649 336.4616481 -22.35125732 334.57992554 C-24.05088579 331.43561288 -23.57484274 329.63752889 -22.60125732 326.26742554 C-20.05071801 323.71688623 -11.69140307 324.47743544 -8.60125732 324.26742554 C-8.60125732 319.64742554 -8.60125732 315.02742554 -8.60125732 310.26742554 C-21.80125732 310.26742554 -35.00125732 310.26742554 -48.60125732 310.26742554 Z " fill="#004A7D" transform="translate(83.60125732421875,75.73257446289063)"/>
</svg>
